<svg width="35" height="35" viewBox="0 0 35 35" fill="none" xmlns="http://www.w3.org/2000/svg">
<path d="M32.6566 8.71798C31.094 6.79746 28.9714 5.28048 26.2894 4.16719C23.6075 3.05403 20.6774 2.49731 17.5003 2.49731C15.1304 2.49731 12.8647 2.82602 10.7033 3.48357C8.54193 4.14105 6.68004 5.02976 5.1175 6.14948C3.55469 7.26935 2.31148 8.60073 1.38686 10.1436C0.462242 11.6865 0 13.3044 0 14.9971C0 16.9502 0.589005 18.7802 1.76749 20.4859C2.94598 22.1914 4.55709 23.6239 6.60157 24.7828C6.45818 25.3034 6.28894 25.7984 6.09356 26.2668C5.89825 26.7355 5.72251 27.1201 5.56626 27.4195C5.40988 27.719 5.19849 28.0511 4.93136 28.4157C4.66463 28.7802 4.46282 29.0375 4.32607 29.187C4.18946 29.3368 3.96487 29.5846 3.65217 29.9292C3.33988 30.2745 3.13794 30.499 3.04688 30.6034C3.03368 30.6095 2.98169 30.6685 2.89057 30.779C2.79952 30.8895 2.75382 30.9447 2.75382 30.9447L2.63663 31.1203C2.57144 31.2182 2.54216 31.2799 2.54859 31.3054C2.55516 31.331 2.54216 31.3965 2.5096 31.5005C2.47697 31.6049 2.48032 31.6831 2.51931 31.7353V31.7548C2.57164 31.9893 2.68555 32.178 2.86122 32.321C3.0369 32.4641 3.23569 32.5228 3.45693 32.4963C4.3035 32.3922 5.0456 32.2496 5.68352 32.067C9.09509 31.1942 12.09 29.6192 14.668 27.3401C15.6443 27.4442 16.5884 27.4965 17.4999 27.4965C20.6769 27.4965 23.6068 26.9398 26.289 25.8261C28.9712 24.713 31.0936 23.1959 32.656 21.2757C34.2187 19.356 34.9999 17.2627 34.9999 14.9971C35 12.7314 34.2188 10.6382 32.6566 8.71798Z" fill="white" fill-opacity="0.8"/>
</svg>
