<svg width="32" height="21" viewBox="0 0 32 21" fill="none" xmlns="http://www.w3.org/2000/svg">
<path d="M21.8182 8.72727C24.2327 8.72727 26.1673 6.77818 26.1673 4.36364C26.1673 1.94909 24.2327 0 21.8182 0C19.4036 0 17.4545 1.94909 17.4545 4.36364C17.4545 6.77818 19.4036 8.72727 21.8182 8.72727ZM10.1818 8.72727C12.5964 8.72727 14.5309 6.77818 14.5309 4.36364C14.5309 1.94909 12.5964 0 10.1818 0C7.76727 0 5.81818 1.94909 5.81818 4.36364C5.81818 6.77818 7.76727 8.72727 10.1818 8.72727ZM10.1818 11.6364C6.79273 11.6364 0 13.3382 0 16.7273V20.3636H20.3636V16.7273C20.3636 13.3382 13.5709 11.6364 10.1818 11.6364ZM21.8182 11.6364C21.3964 11.6364 20.9164 11.6655 20.4073 11.7091C22.0945 12.9309 23.2727 14.5745 23.2727 16.7273V20.3636H32V16.7273C32 13.3382 25.2073 11.6364 21.8182 11.6364Z" fill="white" fill-opacity="0.7"/>
</svg>
