<svg width="148" height="332" viewBox="0 0 148 332" fill="none" xmlns="http://www.w3.org/2000/svg">
<path d="M113.296 266.679C139.214 281.622 139.214 305.85 113.295 320.793C87.3776 335.736 45.3561 335.736 19.4385 320.793C-6.4795 305.85 -6.4795 281.622 19.4385 266.679C45.3569 251.737 87.3776 251.737 113.296 266.679Z" fill="#DADBD8"/>
<path d="M100.145 26.5517C100.478 26.626 100.739 26.8111 100.928 27.1073C101.117 27.4042 101.175 27.7183 101.101 28.0519L100.213 32.055C100.139 32.3903 99.9534 32.6513 99.6568 32.839C99.3603 33.0291 99.0458 33.0862 98.7117 33.0128L94.7937 32.1464C94.4588 32.0713 94.1965 31.887 94.0078 31.59C93.8183 31.2939 93.7603 30.9798 93.8347 30.6453L94.7226 26.6406C94.797 26.3086 94.9816 26.0468 95.279 25.8575C95.5763 25.669 95.8908 25.6111 96.2258 25.6854L100.145 26.5517ZM104.052 0.306229C105.48 0.622753 106.825 1.12691 108.089 1.82033C109.353 2.51293 110.425 3.36217 111.3 4.36803C112.177 5.37226 112.808 6.51439 113.193 7.79354C113.579 9.07106 113.607 10.4546 113.277 11.9401C113.009 13.1532 112.585 14.1664 112.007 14.9765C111.428 15.7874 110.764 16.4833 110.015 17.0649C109.265 17.6466 108.473 18.1565 107.644 18.5929C106.814 19.031 106.028 19.4454 105.289 19.8378C104.548 20.231 103.878 20.6642 103.281 21.1357C102.681 21.6089 102.263 22.1685 102.023 22.8154C101.888 23.136 101.688 23.393 101.422 23.588C101.155 23.7854 100.855 23.8449 100.522 23.7715L97.0582 23.0055C96.7241 22.9321 96.4545 22.7452 96.2511 22.445C96.0469 22.1456 95.997 21.8332 96.1008 21.5061C96.4243 20.3362 96.9046 19.3524 97.5435 18.5546C98.1823 17.7583 98.8914 17.0715 99.6732 16.4963C100.454 15.9212 101.265 15.4252 102.107 15.0067C102.947 14.5874 103.731 14.1803 104.457 13.7838C105.182 13.3874 105.8 12.9672 106.312 12.5243C106.825 12.0813 107.153 11.5404 107.294 10.9033C107.549 9.75139 107.274 8.69499 106.467 7.73725C105.66 6.77952 104.451 6.12198 102.84 5.7663C100.259 5.19443 98.0745 6.06486 96.2887 8.37435C96.0632 8.67456 95.8475 8.88914 95.6449 9.01885C95.4399 9.14938 95.1401 9.17057 94.7447 9.08246L91.0555 8.26668C90.7827 8.20631 90.5662 8.06275 90.4101 7.83759C90.2525 7.61162 90.2084 7.34731 90.2753 7.04383C90.54 5.98984 91.1078 4.97743 91.9762 4.00746C92.8429 3.03831 93.9016 2.22252 95.1466 1.55847C96.3941 0.896866 97.7877 0.432678 99.3276 0.168365C100.868 -0.0951347 102.442 -0.0494576 104.052 0.306229Z" fill="#26B6A6"/>
<path d="M112.635 56.3989C112.868 56.3622 113.083 56.4136 113.281 56.5547C113.478 56.6975 113.595 56.8843 113.633 57.116L114.091 59.9109C114.129 60.1434 114.077 60.3587 113.936 60.5553C113.794 60.7528 113.606 60.8694 113.373 60.9069L110.639 61.354C110.406 61.3923 110.191 61.3409 109.993 61.199C109.796 61.0571 109.679 60.8702 109.64 60.6377L109.183 57.8428C109.145 57.6112 109.197 57.3958 109.339 57.1984C109.48 57.001 109.668 56.8835 109.901 56.8451L112.635 56.3989ZM108.413 38.5748C109.409 38.4132 110.401 38.3912 111.389 38.5128C112.377 38.6343 113.281 38.9043 114.102 39.3237C114.921 39.7454 115.618 40.3156 116.192 41.0368C116.768 41.7588 117.14 42.6382 117.31 43.6734C117.448 44.521 117.436 45.2789 117.273 45.9462C117.11 46.6135 116.863 47.2303 116.531 47.7948C116.199 48.3593 115.824 48.8879 115.403 49.3807C114.984 49.8726 114.586 50.3392 114.213 50.7806C113.839 51.2219 113.521 51.6706 113.258 52.1266C112.995 52.5818 112.87 53.0476 112.883 53.5232C112.879 53.7639 112.815 53.9793 112.696 54.1734C112.574 54.3668 112.397 54.4826 112.165 54.5201L109.748 54.915C109.515 54.9533 109.295 54.9019 109.086 54.7616C108.879 54.6221 108.766 54.4345 108.75 54.1979C108.658 53.365 108.713 52.612 108.919 51.9374C109.123 51.2635 109.403 50.6411 109.756 50.0733C110.108 49.5055 110.501 48.9793 110.934 48.4964C111.367 48.0134 111.764 47.5517 112.128 47.1103C112.491 46.6723 112.779 46.2448 112.995 45.8296C113.209 45.4135 113.281 44.9844 113.209 44.539C113.077 43.7363 112.629 43.1301 111.866 42.7206C111.103 42.3135 110.159 42.2009 109.036 42.3845C107.235 42.6782 106.057 43.7942 105.503 45.7317C105.436 45.9813 105.354 46.1738 105.256 46.3092C105.158 46.4455 104.972 46.5352 104.696 46.5801L102.122 47.001C101.93 47.032 101.755 46.9953 101.597 46.8909C101.438 46.7857 101.342 46.6274 101.307 46.4161C101.206 45.6729 101.311 44.8792 101.62 44.0348C101.927 43.1913 102.396 42.3975 103.025 41.6544C103.655 40.9104 104.429 40.2577 105.348 39.6948C106.269 39.1311 107.29 38.7583 108.413 38.5748Z" fill="#26B6A6"/>
<path d="M110.492 61.3654C110.314 61.3654 110.149 61.3107 109.993 61.199C109.796 61.057 109.679 60.8702 109.64 60.6377L109.183 57.8428C109.175 57.7939 109.172 57.7457 109.172 57.6984C109.172 57.5206 109.226 57.3542 109.339 57.1983C109.48 57.0009 109.668 56.8834 109.901 56.8451L112.635 56.3989C112.683 56.3907 112.732 56.3875 112.779 56.3875C112.958 56.3875 113.125 56.4429 113.281 56.5547C113.478 56.6974 113.595 56.8843 113.634 57.1159L114.091 59.9108C114.099 59.9598 114.103 60.0079 114.103 60.0552C114.103 60.2331 114.048 60.4003 113.936 60.5553C113.794 60.7527 113.606 60.8694 113.373 60.9069L110.639 61.354C110.589 61.3613 110.54 61.3654 110.492 61.3654ZM109.6 54.9272C109.421 54.9272 109.25 54.8717 109.087 54.7616C108.879 54.6221 108.766 54.4345 108.75 54.1979C108.721 53.9376 108.707 53.6856 108.707 53.4408C108.707 52.9024 108.778 52.4015 108.919 51.9373C109.123 51.2635 109.403 50.641 109.756 50.0733C110.109 49.5055 110.501 48.9793 110.934 48.4963C111.367 48.0134 111.764 47.5516 112.128 47.1103C112.491 46.6722 112.779 46.2448 112.995 45.8295C113.156 45.5179 113.236 45.1981 113.236 44.8702C113.236 44.7608 113.227 44.6507 113.209 44.539C113.077 43.7362 112.63 43.1301 111.866 42.7206C111.339 42.4391 110.727 42.2988 110.028 42.2988C109.715 42.2988 109.385 42.3274 109.036 42.3845C107.235 42.6781 106.057 43.7941 105.504 45.7316C105.436 45.9813 105.354 46.1738 105.256 46.3092C105.158 46.4455 104.972 46.5352 104.696 46.58L102.122 47.001C102.078 47.0075 102.035 47.0116 101.993 47.0116C101.851 47.0116 101.72 46.9716 101.597 46.8909C101.439 46.7856 101.342 46.6274 101.307 46.4161C101.283 46.2358 101.271 46.053 101.27 45.867C101.269 45.2854 101.386 44.6744 101.62 44.0348C101.927 43.1913 102.396 42.3975 103.025 41.6543C103.655 40.9103 104.429 40.2577 105.348 39.6948C106.269 39.1311 107.29 38.7583 108.413 38.5747C108.984 38.4817 109.554 38.4352 110.123 38.4352C110.546 38.4352 110.968 38.4613 111.389 38.5127C112.377 38.6343 113.281 38.9043 114.102 39.3236C114.921 39.7454 115.618 40.3156 116.192 41.0368C116.768 41.7587 117.14 42.6382 117.31 43.6734C117.373 44.0642 117.405 44.4353 117.405 44.7878C117.405 45.2006 117.361 45.5864 117.273 45.9462C117.11 46.6135 116.863 47.2302 116.531 47.7948C116.199 48.3593 115.824 48.8879 115.403 49.3806C114.984 49.8726 114.586 50.3392 114.213 50.7806C113.839 51.2219 113.521 51.6706 113.258 52.1266C113.007 52.5598 112.882 53.0036 112.882 53.4563C112.882 53.4783 112.883 53.5004 112.883 53.5232C112.879 53.7639 112.815 53.9792 112.696 54.1734C112.574 54.3667 112.398 54.4826 112.166 54.5201L109.748 54.915C109.698 54.9231 109.649 54.9272 109.6 54.9272Z" fill="#14B099"/>
<path d="M142.829 24.4396C143.803 25.1298 144.657 25.939 145.387 26.8625C146.118 27.7876 146.655 28.7674 146.993 29.8034C147.333 30.8395 147.444 31.9 147.327 32.9858C147.21 34.0724 146.79 35.1224 146.067 36.1372C145.478 36.966 144.836 37.5942 144.142 38.02C143.448 38.4475 142.726 38.7608 141.975 38.9598C141.223 39.1597 140.465 39.2918 139.702 39.3587C138.936 39.4232 138.212 39.486 137.529 39.5463C136.846 39.6067 136.203 39.7201 135.603 39.8857C135.001 40.0505 134.507 40.3401 134.12 40.7513C133.916 40.9495 133.683 41.0792 133.42 41.142C133.157 41.2048 132.912 41.1543 132.684 40.9936L130.319 39.3147C130.091 39.1532 129.947 38.9272 129.889 38.6359C129.831 38.3447 129.893 38.0934 130.076 37.8797C130.693 37.1014 131.368 36.5133 132.105 36.116C132.84 35.7195 133.593 35.4274 134.365 35.2423C135.136 35.0571 135.906 34.9404 136.674 34.8939C137.441 34.8458 138.161 34.7879 138.835 34.7202C139.507 34.6525 140.107 34.5325 140.635 34.362C141.162 34.1899 141.581 33.8872 141.891 33.4524C142.451 32.6652 142.579 31.7833 142.277 30.8044C141.975 29.8263 141.274 28.9468 140.176 28.1669C138.411 26.9147 136.488 26.8756 134.406 28.0462C134.14 28.2012 133.909 28.295 133.715 28.3277C133.519 28.3603 133.288 28.2812 133.018 28.0903L130.498 26.3013C130.311 26.1691 130.195 25.9929 130.148 25.7726C130.102 25.5524 130.153 25.3394 130.3 25.1322C130.836 24.4217 131.586 23.8392 132.55 23.3848C133.513 22.9312 134.569 22.6522 135.721 22.5494C136.871 22.4467 138.068 22.5397 139.313 22.8317C140.557 23.1221 141.729 23.6581 142.829 24.4396ZM131.512 42.967C131.74 43.1301 131.878 43.352 131.927 43.6359C131.974 43.9198 131.917 44.1751 131.755 44.4027L129.809 47.1364C129.647 47.3649 129.424 47.5027 129.14 47.55C128.856 47.5982 128.6 47.5411 128.372 47.3795L125.697 45.4804C125.468 45.3172 125.331 45.0961 125.283 44.8123C125.234 44.5275 125.292 44.273 125.454 44.0454L127.4 41.3109C127.562 41.0833 127.784 40.9454 128.069 40.8973C128.353 40.85 128.608 40.9063 128.837 41.0686L131.512 42.967Z" fill="#26B6A6"/>
<path d="M128.948 47.5663C128.74 47.5663 128.547 47.5035 128.372 47.3795L125.697 45.4804C125.468 45.3172 125.331 45.0961 125.283 44.8123C125.272 44.7478 125.266 44.685 125.266 44.623C125.266 44.4133 125.329 44.2208 125.454 44.0454L127.4 41.3109C127.562 41.0833 127.784 40.9454 128.069 40.8973C128.134 40.8867 128.198 40.881 128.26 40.881C128.468 40.881 128.66 40.9438 128.837 41.0686L131.512 42.967C131.74 43.1301 131.878 43.352 131.927 43.6359C131.937 43.6995 131.942 43.7623 131.942 43.8243C131.942 44.034 131.88 44.2265 131.755 44.4027L129.809 47.1364C129.647 47.3648 129.424 47.5027 129.14 47.55C129.075 47.5606 129.011 47.5663 128.948 47.5663ZM133.204 41.1681C133.021 41.1681 132.848 41.1094 132.684 40.9936L130.319 39.3147C130.091 39.1532 129.947 38.9272 129.889 38.6359C129.875 38.565 129.868 38.4973 129.868 38.4312C129.868 38.2248 129.937 38.0412 130.076 37.8797C130.693 37.1014 131.368 36.5133 132.105 36.116C132.84 35.7195 133.593 35.4274 134.365 35.2423C135.136 35.0571 135.906 34.9404 136.674 34.8939C137.441 34.8458 138.162 34.7879 138.835 34.7202C139.507 34.6525 140.107 34.5325 140.635 34.362C141.162 34.1899 141.581 33.8872 141.891 33.4524C142.254 32.9426 142.436 32.3919 142.436 31.8013C142.436 31.4807 142.383 31.1487 142.277 30.8044C141.975 29.8263 141.274 28.9468 140.176 28.1669C139.264 27.52 138.311 27.197 137.315 27.197C136.382 27.197 135.413 27.4801 134.406 28.0462C134.14 28.2012 133.909 28.295 133.715 28.3277C133.686 28.3325 133.657 28.335 133.627 28.335C133.45 28.335 133.249 28.2534 133.018 28.0903L130.498 26.3013C130.311 26.1691 130.195 25.9929 130.148 25.7726C130.138 25.7212 130.132 25.6698 130.132 25.6192C130.131 25.4528 130.188 25.2905 130.3 25.1322C130.836 24.4217 131.586 23.8392 132.55 23.3848C133.513 22.9312 134.57 22.6522 135.721 22.5495C136.022 22.5225 136.326 22.5095 136.634 22.5095C137.501 22.5095 138.394 22.6163 139.313 22.8317C140.557 23.1221 141.729 23.6581 142.829 24.4396C143.803 25.1298 144.657 25.939 145.387 26.8625C146.118 27.7876 146.655 28.7674 146.993 29.8034C147.246 30.5727 147.371 31.355 147.372 32.1513C147.372 32.4278 147.358 32.706 147.327 32.9858C147.21 34.0724 146.79 35.1224 146.067 36.1372C145.478 36.966 144.836 37.5942 144.142 38.02C143.448 38.4475 142.726 38.7607 141.975 38.9598C141.223 39.1597 140.465 39.2918 139.702 39.3587C138.936 39.4232 138.212 39.486 137.529 39.5463C136.846 39.6067 136.203 39.7201 135.603 39.8857C135.001 40.0505 134.507 40.3401 134.12 40.7513C133.916 40.9495 133.683 41.0792 133.42 41.142C133.347 41.16 133.275 41.1681 133.204 41.1681Z" fill="#87D6CB"/>
<path d="M70.6799 115.184H41.6572V44.9567C41.6572 32.2565 51.9667 21.9613 64.6837 21.9613H67.3657C80.0826 21.9613 90.393 32.2565 90.393 44.9567V95.4979C90.393 106.371 81.567 115.184 70.6799 115.184Z" fill="#17282F"/>
<path d="M38.8355 284.237C38.5961 286 38.0896 288.06 37.9949 293.051C37.8927 298.401 36.9084 300.3 36.7785 304.692C36.6298 309.709 37.4973 311.586 39.5364 314.405C41.5746 317.226 46.9254 319.785 49.1874 315.018C51.4756 310.194 51.1578 307.129 50.4349 302.207C49.6874 297.119 49.5918 294.308 49.1588 290.428C48.7773 287.007 48.3199 284.409 48.3199 284.409L38.8355 284.237Z" fill="#17282F"/>
<path d="M54.0441 248.694L36.3954 248.374C36.6576 260.139 38.53 273.198 38.8355 284.237C38.8927 286.315 38.7832 300.384 39.5683 304.659C40.7471 311.083 48.3829 310.216 48.7873 306.371C49.1933 302.527 48.2955 286.102 48.32 284.409C48.253 277.329 51.5754 265.379 53.3179 252.671C53.4037 252.046 53.9633 249.302 54.0441 248.694Z" fill="#FABA73"/>
<path d="M76.7153 275.082C76.7153 275.082 76.0185 274.708 75.8747 275.451C75.704 276.334 75.4491 278.155 75.0815 279.605C74.5709 281.621 74.1461 284.941 74.4516 286.584C74.758 288.227 78.5926 290.34 81.0818 291.104C84.7555 292.23 87.2748 294.069 89.2877 295.96C91.7532 298.277 97.073 300.467 100.697 300.441C104.984 300.41 107.973 299.015 109.386 296.722C110.861 294.328 108.098 294.152 103.198 290.978C102.086 290.257 100.819 289.441 99.3946 288.511C91.6323 283.448 88.7902 280.734 86.5943 275.67L76.7153 275.082Z" fill="#17282F"/>
<path d="M86.6556 271.947C86.5249 268.304 89.0263 237.402 89.0263 237.402L72.2655 245.032C75.8551 266.424 76.6197 271.469 76.6834 274.969C76.6556 275.051 76.5837 275.348 76.5887 275.865C76.6034 280.022 81.3007 282.263 84.9645 285.034C86.4121 286.128 90.6209 289.36 94.8738 291.494C97.5361 292.83 102.943 292.952 103.612 291.241C99.1528 287.842 92.6689 282.753 89.1227 278.87C87.4292 277.016 86.7863 275.59 86.6556 271.947Z" fill="#FABA73"/>
<path d="M43.6275 133.902C37.1926 148.013 37.1935 158.925 38.2563 176.93C39.2317 193.445 40.7879 207.985 40.7879 207.985C40.5388 210.916 36.4599 216.634 35.9321 229.585C35.4387 241.693 36.767 257.084 36.767 257.084C36.767 257.084 45.9231 262.153 52.6937 257.04C52.6937 257.04 59.2266 225.887 61.1407 210.73C62.8121 197.503 65.7154 180.604 65.7154 180.604L71.8652 210.658C71.8652 210.658 69.5255 218.068 68.9782 223.713C68.1139 232.628 73.1061 250.134 73.1061 250.134C73.1061 250.134 82.5668 252.953 88.3441 247.836C88.3441 247.836 90.5057 219.375 91.312 208.636C92.3911 194.255 90.1217 155.323 88.3433 134.713L43.6275 133.902Z" fill="#33535F"/>
<path d="M65.7155 180.604L68.2569 157.981C68.2569 157.981 79.6456 156.461 84.8044 151.618C84.8044 151.618 80.9281 158.71 71.3857 160.087L67.7104 181.138L71.8652 210.658L65.7155 180.604Z" fill="#17282F"/>
<path d="M111.827 128.343C112.538 121.409 112.509 116.789 112.448 115.901C112.2 112.31 111.557 111.726 106.531 105.365C99.745 96.7763 93.9538 89.0573 87.8278 81.3767C83.4548 75.8938 78.8588 75.0502 74.3682 75.2982C71.2296 75.472 77.354 90.5396 80.4387 99.4545L98.045 118.365C98.5866 119.112 98.8357 120.03 98.7451 120.948L97.6635 137.048L102.936 144.089C102.936 144.089 110.92 137.216 111.827 128.343Z" fill="#FABA73"/>
<path d="M57.4089 75.7869C54.0048 76.021 47.8117 76.5651 47.8117 76.5651C44.2385 78.5565 43.3359 80.1889 42.6709 84.9278C42.3882 86.9444 44.0343 92.3229 45.4468 99.966L48.1287 114.139L47.8379 121.168C46.445 125.457 43.2966 130.788 40.5232 138.646C54.1625 146.247 65.6018 146.529 75.9759 145.199C83.8869 144.185 88.0728 142.273 89.4689 140.385C89.1781 132.622 88.6275 127.828 88.4927 119.719C88.4364 116.312 88.6414 112.876 88.7737 108.955C94.0813 104.601 94.1409 97.3604 91.2466 92.6802C84.52 81.8066 77.9814 74.9605 73.6501 75.3113L57.4089 75.7869Z" fill="#26B6A6"/>
<path d="M67.0911 145.812C59.0991 145.812 50.3859 144.142 40.5232 138.646C43.2966 130.788 46.445 125.457 47.8379 121.168L48.1287 114.139L45.4468 99.966C44.1413 92.9054 42.6382 87.7765 42.639 85.4466C42.639 85.2549 42.6496 85.082 42.6709 84.9278C43.3359 80.1889 44.2385 78.5565 47.8117 76.5651C47.8117 76.5651 54.0048 76.021 57.4089 75.7869L73.6501 75.3113C73.7563 75.3031 73.8641 75.2982 73.9728 75.2982C78.3025 75.2982 84.6859 82.0741 91.2466 92.6802C92.4646 94.6503 93.1598 97.0732 93.1606 99.5442C93.1606 102.837 91.9287 106.213 89.0588 108.714C88.9657 108.794 88.8701 108.875 88.7737 108.955C88.6569 112.416 88.4837 115.5 88.4837 118.519C88.4837 118.92 88.4862 119.32 88.4927 119.719C88.6275 127.828 89.1781 132.622 89.4689 140.385C88.0728 142.273 83.8869 144.185 75.9759 145.199C73.1036 145.567 70.1504 145.812 67.0911 145.812ZM56.7301 102.657C56.7301 102.657 55.9752 110.774 64.9434 113.541C66.3068 113.962 67.5706 114.139 68.7306 114.139C74.9384 114.139 78.2159 109.072 78.2159 109.072C78.2159 109.072 74.2963 112.109 69.1276 112.109C67.7797 112.109 66.3477 111.903 64.8772 111.381C57.7676 108.864 56.7301 102.657 56.7301 102.657Z" fill="#87D6CB"/>
<path d="M68.7307 114.139C67.5707 114.139 66.3069 113.962 64.9435 113.541C55.9753 110.774 56.7301 102.657 56.7301 102.657C56.7301 102.657 57.7676 108.864 64.8773 111.381C66.3478 111.903 67.7798 112.109 69.1277 112.109C74.2964 112.109 78.216 109.072 78.216 109.072C78.216 109.072 74.9385 114.139 68.7307 114.139Z" fill="#78D1BF"/>
<path d="M86.663 53.5085C86.395 65.2861 82.5669 68.1976 80.6488 69.0338C78.7298 69.87 75.0276 69.3601 71.4348 68.7662V75.8342C71.4348 75.8342 75.5806 80.1758 75.2702 83.4128C74.9524 86.6588 68.7536 87.0186 64.0964 83.8476C60.6972 81.5357 58.2693 78.8934 57.2106 77.6395C56.8242 77.1827 56.6158 76.61 56.6158 76.0128V59.3806C56.6158 59.3806 54.6479 61.4633 51.1629 59.0796C47.6869 56.704 47.3855 52.2702 49.5127 49.7608C51.0289 47.9791 54.8823 47.8535 56.7335 50.6223C57.7726 52.6552 57.9139 54.6963 59.0788 53.8512C62.1864 51.6175 60.5199 46.5401 64.2728 44.0307L64.2892 44.0226C65.4116 43.4197 66.6844 42.8511 68.1083 42.3576C74.8013 40.0489 80.5981 38.1081 81.9967 33.5414C84.6354 35.1052 86.9897 39.6141 86.663 53.5085Z" fill="#FBBC76"/>
<path d="M75.0193 62.4855C75.0193 63.3396 74.3258 64.0314 73.4713 64.0314C72.616 64.0314 71.9232 63.3396 71.9232 62.4855C71.9232 61.6314 72.616 60.9388 73.4713 60.9388C74.3258 60.9388 75.0193 61.6314 75.0193 62.4855Z" fill="#C35363"/>
<path d="M72.4355 51.7228C72.4829 52.6569 71.7909 53.4482 70.8915 53.4906C69.9913 53.533 69.2242 52.8111 69.1768 51.8778C69.1302 50.9437 69.8213 50.1524 70.7216 50.11C71.621 50.0676 72.3889 50.7895 72.4355 51.7228Z" fill="#17282F"/>
<path d="M84.8158 51.8835C84.8591 52.7327 84.2301 53.4514 83.4115 53.4898C82.5121 53.533 81.9011 52.9571 81.8537 52.0238C81.8104 51.1754 82.4394 50.4559 83.2572 50.4175C84.0757 50.3784 84.7733 51.0343 84.8158 51.8835Z" fill="#17282F"/>
<path d="M70.3376 47.8405C67.1165 47.8405 65.8618 48.6171 65.8618 50.6109C65.8618 53.0754 67.8697 55.0806 70.3376 55.0806C72.8056 55.0806 74.8127 53.0754 74.8127 50.6109C74.8127 48.6171 73.5579 47.8405 70.3376 47.8405ZM70.3376 55.9167C67.4082 55.9167 65.0244 53.5363 65.0244 50.6109C65.0244 47.0035 68.7471 47.0035 70.3376 47.0035C71.9282 47.0035 75.6509 47.0035 75.6509 50.6109C75.6509 53.5363 73.2671 55.9167 70.3376 55.9167Z" fill="#33535F"/>
<path d="M83.8257 47.8405C80.6046 47.8405 79.3498 48.6171 79.3498 50.6109C79.3498 53.0754 81.3578 55.0806 83.8257 55.0806C86.2936 55.0806 88.3008 53.0754 88.3008 50.6109C88.3008 48.6171 87.046 47.8405 83.8257 47.8405ZM83.8257 55.9167C80.8962 55.9167 78.5125 53.5363 78.5125 50.6109C78.5125 47.0035 82.2352 47.0035 83.8257 47.0035C85.4154 47.0035 89.1382 47.0035 89.1382 50.6109C89.1382 53.5363 86.7552 55.9167 83.8257 55.9167Z" fill="#33535F"/>
<path d="M76.476 48.901L76.7374 58.8087L81.9591 57.1935L76.476 48.901Z" fill="#FF9E33"/>
<path d="M71.4306 68.7638C67.6377 68.2669 59.8344 66.0284 58.618 62.948C58.618 62.948 59.0232 64.8839 61.3547 66.8793C63.6854 68.8739 71.4306 71.1214 71.4306 71.1214V68.7638Z" fill="#FF9E33"/>
<path d="M71.6104 44.0895L68.1506 46.1958C67.5837 45.2014 67.899 43.9238 68.854 43.3422C69.8098 42.7597 71.0442 43.095 71.6104 44.0895Z" fill="#17282F"/>
<path d="M85.7063 46.4381L81.8512 45.0929C82.1861 44.0079 83.32 43.4287 84.3853 43.7999C85.4497 44.171 86.0412 45.3523 85.7063 46.4381Z" fill="#17282F"/>
<path d="M75.2309 51.0334C74.9989 51.0334 74.8126 50.8417 74.8126 50.6109C74.8126 49.933 76.1573 49.4941 77.3639 49.4941C78.5705 49.4941 79.3498 49.933 79.3498 50.6109C79.3498 50.8417 79.1627 51.0294 78.9307 51.0294C78.6996 51.0294 78.5125 50.8417 78.5125 50.6109C78.4749 50.5342 78.0885 50.3303 77.3639 50.3303C76.6393 50.3303 75.6884 50.5342 75.6492 50.6182C75.6492 50.8499 75.4621 51.0334 75.2309 51.0334Z" fill="#33535F"/>
<path d="M65.4573 50.6794L65.4099 50.6778L56.0717 49.8277C55.9034 49.6735 55.4623 49.2167 54.5416 48.8357L65.503 49.8457C65.7326 49.8709 65.8976 50.079 65.8731 50.3082C65.8486 50.522 65.6672 50.6794 65.4573 50.6794Z" fill="#33535F"/>
<path d="M27.1193 60.3987C30.1729 56.3238 32.2552 53.2459 35.0426 49.7535C36.6258 47.7711 37.6371 46.3549 39.1598 44.3203C40.208 42.9196 40.8215 41.7384 41.9839 41.3044C43.291 40.8165 44.5515 39.8506 45.3921 38.968C45.9934 38.3374 46.4852 37.6129 47.0039 36.9146C48.7489 34.566 50.8345 32.4694 53.1733 30.7098C55.6306 28.8596 58.3624 27.4499 60.8842 25.6878C62.389 24.6362 64.0024 22.8896 62.1717 21.2589C61.6252 20.7719 60.93 20.4814 60.2152 20.3256C55.7703 19.3556 51.8907 20.886 47.5439 21.9963C45.6535 22.4784 43.7951 23.0829 42.0076 23.8637C41.1401 24.2422 40.2749 24.6542 39.5561 25.2684C38.4352 26.2262 37.7645 27.5894 37.0367 28.8701C35.0818 32.3095 31.0323 35.3442 28.1821 38.0208C24.8384 41.1616 21.8501 44.0413 18.0359 47.5068C14.6032 50.6247 11.2448 53.5012 8.09644 56.9071C5.49209 59.7248 6.43972 61.9291 6.8106 62.691C8.93296 67.0498 11.3094 68.6128 14.1482 71.3139C19.0652 75.9916 36.0024 89.4464 41.6204 93.8884C42.8229 94.8388 43.7673 96.0714 44.3743 97.4778L45.4469 99.966C51.8515 101.142 56.1248 91.5405 50.8206 79.9784C49.9604 78.1029 48.5953 76.5056 46.9263 75.2909C40.2398 70.4206 27.1193 60.3987 27.1193 60.3987Z" fill="#FAB86F"/>
<path d="M27.1193 60.3987C27.1193 60.3987 24.2241 64.2647 19.2915 65.7788C19.2915 65.7788 23.3769 66.8197 28.9688 61.8084L27.1193 60.3987Z" fill="#FF9E33"/>
<path d="M110.166 119.83L110.188 119.832L109.14 118.931L109.139 118.944C108.903 118.754 108.536 118.696 108.062 118.824L96.7192 121.905C95.6687 122.19 94.5274 123.255 94.1713 124.284L86.0078 147.801C85.8191 148.347 85.8942 148.766 86.1581 149.003L86.1491 149.006L87.2299 149.935L87.2291 149.922C87.4643 150.118 87.8352 150.18 88.3156 150.05L99.6585 146.969C100.71 146.684 101.851 145.618 102.207 144.59C103.811 139.968 108.767 125.693 110.37 121.072C110.571 120.492 110.472 120.056 110.166 119.83Z" fill="#33535F"/>
<path d="M87.0583 148.705L95.2209 125.187C95.5771 124.158 96.7184 123.094 97.7697 122.808L109.113 119.728C110.163 119.442 110.727 120.044 110.37 121.072C108.767 125.694 103.811 139.968 102.208 144.59C101.851 145.618 100.71 146.684 99.6584 146.969L88.3155 150.05C87.265 150.335 86.7013 149.733 87.0583 148.705Z" fill="#26B6A6"/>
<path d="M96.5345 123.461C95.9439 123.927 95.4358 124.568 95.2185 125.189L87.0534 148.7C86.8769 149.228 86.9284 149.642 87.1669 149.88L86.1515 149.011L86.1621 149C85.8925 148.762 85.8198 148.349 86.0069 147.8L94.172 124.279C94.3689 123.699 94.8354 123.11 95.3843 122.644L96.5345 123.461Z" fill="#273E47"/>
<path d="M107.05 130.547C106.25 132.943 103.399 134.542 98.7142 135.65C94.0291 136.759 91.4338 141.727 92.1902 143.239C92.9475 144.75 100.518 146.155 103.546 145.723C106.575 145.291 109.621 140.919 110.537 139.567C111.454 138.214 112.523 128.767 111.55 127.471C110.576 126.175 108.53 126.374 108.53 126.374L107.05 130.547Z" fill="#FBBB74"/>
</svg>
