<svg width="34" height="30" viewBox="0 0 34 30" fill="none" xmlns="http://www.w3.org/2000/svg">
<g clip-path="url(#clip0)" filter="url(#filter0_d)">
<path d="M15.0007 7.60474L5.01459 15.8372C5.01459 15.8488 5.01167 15.8659 5.00583 15.8892C5.00011 15.9123 4.99707 15.9291 4.99707 15.941V24.2773C4.99707 24.5783 5.10711 24.8391 5.32713 25.0588C5.5471 25.2785 5.80757 25.3891 6.10862 25.3891H12.7774V18.7199H17.2239V25.3894H23.8927C24.1937 25.3894 24.4545 25.279 24.6742 25.0588C24.8942 24.8393 25.0046 24.5783 25.0046 24.2773V15.941C25.0046 15.8948 24.9983 15.8599 24.9871 15.8372L15.0007 7.60474Z" fill="white"/>
<path d="M28.8068 13.9615L25.0036 10.8006V3.71469C25.0036 3.5527 24.9515 3.41948 24.847 3.31522C24.7434 3.21107 24.6102 3.159 24.4478 3.159H21.1133C20.9512 3.159 20.818 3.21107 20.7137 3.31522C20.6096 3.41948 20.5576 3.55276 20.5576 3.71469V7.10129L16.32 3.55823C15.95 3.25718 15.5099 3.10669 15.0004 3.10669C14.4909 3.10669 14.051 3.25718 13.6805 3.55823L1.19299 13.9615C1.07723 14.054 1.01378 14.1784 1.00198 14.3347C0.99024 14.491 1.03069 14.6274 1.12346 14.7431L2.20021 16.0283C2.29298 16.1325 2.4144 16.1962 2.56495 16.2195C2.70395 16.2311 2.84294 16.1905 2.98194 16.0979L15 6.07661L27.0182 16.0979C27.1111 16.1786 27.2324 16.219 27.383 16.219H27.4352C27.5855 16.1961 27.7067 16.132 27.7999 16.0281L28.8768 14.743C28.9694 14.6271 29.01 14.4909 28.9979 14.3345C28.986 14.1786 28.9224 14.0541 28.8068 13.9615Z" fill="white"/>
</g>
<defs>
<filter id="filter0_d" x="0" y="-1.75195" width="34" height="34" filterUnits="userSpaceOnUse" color-interpolation-filters="sRGB">
<feFlood flood-opacity="0" result="BackgroundImageFix"/>
<feColorMatrix in="SourceAlpha" type="matrix" values="0 0 0 0 0 0 0 0 0 0 0 0 0 0 0 0 0 0 127 0"/>
<feOffset dx="2" dy="1"/>
<feGaussianBlur stdDeviation="1.5"/>
<feColorMatrix type="matrix" values="0 0 0 0 0.427451 0 0 0 0 0.454902 0 0 0 0 0.756863 0 0 0 0.25 0"/>
<feBlend mode="normal" in2="BackgroundImageFix" result="effect1_dropShadow"/>
<feBlend mode="normal" in="SourceGraphic" in2="effect1_dropShadow" result="shape"/>
</filter>
<clipPath id="clip0">
<rect width="28" height="28" fill="white" transform="translate(1 0.248047)"/>
</clipPath>
</defs>
</svg>
