<svg width="357" height="499" viewBox="0 0 357 499" fill="none" xmlns="http://www.w3.org/2000/svg">
  <path d="M129.663 338.3L103.17 323.005L80.774 335.934L0 289.214L82.1407 240.128V303.758C82.1407 305.068 82.5993 305.988 83.3393 306.413L83.6833 306.568L90.774 310.644C91.118 310.89 91.534 311.02 92.002 311.02C92.5527 311.02 93.174 310.84 93.8327 310.461L174.326 263.989V275.938L125.983 303.849C124.061 304.96 123.189 306.446 123.366 307.898V316.289L123.367 316.285C123.357 316.385 123.353 316.486 123.353 316.586C123.355 317.917 124.226 319.245 125.983 320.26L140.33 328.546C141.579 329.268 143.106 329.732 144.713 329.941L129.663 338.3Z" fill="url(#paint0_radial)" />
  <path d="M267.938 259.813H267.943V251.242L261.786 254.341L250.975 248.094C247.454 246.062 241.741 246.062 238.221 248.094L129.554 310.836L123.366 307.817V316.289L123.367 316.285C123.229 317.714 124.094 319.169 125.983 320.26L140.33 328.546C143.849 330.577 149.559 330.577 153.082 328.546L265.318 263.742C267.187 262.662 268.055 261.228 267.938 259.813Z" fill="#76C5EF" />
  <path d="M129.554 310.836L123.366 307.817V316.289L123.367 316.285C123.229 317.714 124.094 319.169 125.983 320.26L140.33 328.546C142.045 329.532 144.279 330.032 146.529 330.058V301.036L129.554 310.836Z" fill="#449FD1" />
  <path d="M140.33 319.493C143.849 321.528 149.559 321.528 153.082 319.496L265.318 254.694C268.839 252.657 268.839 249.364 265.318 247.333L250.975 239.049C247.454 237.016 241.741 237.016 238.221 239.049L125.983 303.849C122.463 305.882 122.463 309.178 125.983 311.212L140.33 319.493Z" fill="#A4E2F9" />
  <path d="M174.326 297.128L166.502 292.7V252.67L216.977 223.532L174.326 297.128Z" fill="#449FD1" />
  <path d="M224.799 267.988L174.326 297.128V257.098L224.799 227.96V267.988Z" fill="#57B2E7" />
  <path d="M307.935 16.5516L300.591 12.3623C300.441 12.2436 300.274 12.1463 300.091 12.077L300.086 12.0743C299.378 11.8036 298.465 11.9196 297.466 12.4943L86.2393 134.448C83.9753 135.756 82.1407 138.936 82.1407 141.55V303.758C82.1407 305.068 82.5993 305.988 83.3393 306.413L83.6833 306.568L90.9873 310.766L92.506 302.862L90.326 303.769L297.466 184.176C299.735 182.865 301.571 179.686 301.571 177.07V20.9743L307.935 16.5516Z" fill="#57B2E7" />
  <path d="M300.591 12.3623C300.441 12.2436 300.274 12.1463 300.091 12.077L300.086 12.0743C299.378 11.8036 298.465 11.9196 297.466 12.4943L86.2393 134.448C85.258 135.016 84.366 135.946 83.658 137.024L224.861 226.096L297.466 184.176C299.735 182.865 301.571 179.686 301.571 177.07V20.9743L307.935 16.5516L300.591 12.3623Z" fill="#A4E2F9" />
  <path d="M309.162 181.405C309.165 184.021 307.326 187.2 305.063 188.51L93.8327 310.461C91.5673 311.765 89.734 310.709 89.734 308.094V145.885C89.734 143.269 91.5673 140.089 93.8327 138.781L305.063 16.8303C307.326 15.5209 309.162 16.5822 309.162 19.1956V181.405Z" fill="#76C5EF" />
  <path d="M305.178 169.524L93.714 291.612V145.597L305.178 23.5103V169.524Z" fill="#EBF9FE" />
  <path d="M303.107 24.7049V167.914L93.714 288.805V291.612L305.178 169.524V23.5103L303.107 24.7049Z" fill="white" />
  <path d="M285.391 59.3863L201.098 108.053V103.222L285.391 54.5557V59.3863Z" fill="#CFEEF6" />
  <path d="M285.391 68.013L153.755 144.013V139.184L285.391 63.1836V68.013Z" fill="#CFEEF6" />
  <path d="M285.391 76.6396L153.755 152.64V147.81L285.391 71.8103V76.6396Z" fill="#CFEEF6" />
  <path d="M285.391 85.2663L153.755 161.266V156.438L285.391 80.437V85.2663Z" fill="#CFEEF6" />
  <path d="M285.391 93.8943L153.755 169.893V165.065L285.391 89.065V93.8943Z" fill="#CFEEF6" />
  <path d="M285.391 102.521L153.755 178.521V173.692L285.391 97.6916V102.521Z" fill="#CFEEF6" />
  <path d="M285.391 119.774L201.098 168.441V163.612L285.391 114.945V119.774Z" fill="#CFEEF6" />
  <path d="M285.391 128.402L153.755 204.401V199.573L285.391 123.572V128.402Z" fill="#CFEEF6" />
  <path d="M285.391 137.028L153.755 213.028V208.2L285.391 132.198V137.028Z" fill="#CFEEF6" />
  <path d="M285.391 145.656L153.755 221.656V216.825L285.391 140.826V145.656Z" fill="#CFEEF6" />
  <path d="M285.391 154.282L153.755 230.284V225.453L285.391 149.452V154.282Z" fill="#CFEEF6" />
  <path d="M216.879 202.466L153.755 238.912V234.078L216.879 197.634V202.466Z" fill="#CFEEF6" />
  <path d="M136.566 342.285L129.663 338.3L144.713 329.941C145.367 330.026 146.035 330.069 146.705 330.069C149.013 330.069 151.321 329.561 153.082 328.546L185.765 309.676V321.958L186.381 322.314L136.566 342.285Z" fill="url(#paint1_radial)" />
  <path d="M146.705 330.069C146.035 330.069 145.367 330.026 144.713 329.941L144.725 329.934C145.319 330.01 145.923 330.052 146.529 330.058V328.932L185.765 307.14V309.676L153.082 328.546C151.321 329.561 149.013 330.069 146.705 330.069Z" fill="#66B4E7" />
  <path d="M146.529 330.058C145.923 330.052 145.319 330.01 144.725 329.934L146.529 328.932V330.058Z" fill="#3E91C7" />
  <path d="M252.134 239.718L254.031 238.624L252.134 239.718Z" fill="url(#paint2_radial)" />
  <path d="M224.799 255.5L252.134 239.718L224.799 255.5Z" fill="#8A76AD" />
  <path d="M190.913 275.065L224.799 255.5L190.913 275.065Z" fill="#385F9E" />
  <path d="M328.709 207.04L318.722 201.274L328.709 207.04Z" fill="url(#paint3_radial)" />
  <path d="M81.1567 209.773L78.7033 208.726C80.0127 205.654 82.1033 202.102 82.1407 202.028V207.462C81.8527 208.134 82.074 207.62 81.1567 209.773Z" fill="#3367B1" />
  <path d="M223.825 19.1423C220.241 18.537 216.711 18.2983 213.357 18.4329L213.251 15.7689C216.791 15.6289 220.502 15.8783 224.269 16.5116L223.825 19.1423ZM193.534 24.245L192.167 21.9543C195.373 20.0436 198.787 18.5529 202.323 17.5236L203.069 20.0823C199.751 21.0503 196.543 22.4503 193.534 24.245ZM243.861 25.8263C240.546 24.2169 237.246 22.8503 234.053 21.765L234.913 19.2396C238.209 20.361 241.61 21.7703 245.025 23.4263L243.861 25.8263ZM178.423 38.6076L176.247 37.0663C178.446 33.9636 180.854 31.1449 183.402 28.6916L185.253 30.6116C182.825 32.9503 180.526 35.641 178.423 38.6076ZM168.798 57.4409L166.291 56.5316C167.574 52.9956 169.027 49.6143 170.61 46.481L172.991 47.6836C171.455 50.7223 170.046 54.0049 168.798 57.4409ZM163.485 78.0716L160.854 77.6316C161.466 73.9769 162.219 70.3876 163.093 66.9676L165.675 67.6263C164.822 70.9756 164.085 74.4903 163.485 78.0716ZM161.479 99.3543L158.814 99.2823C158.911 95.617 159.127 91.9636 159.458 88.4263L162.113 88.6729C161.789 92.1529 161.575 95.7463 161.479 99.3543ZM159.541 120.994C159.209 117.374 158.978 113.725 158.857 110.15L161.522 110.058C161.642 113.584 161.869 117.181 162.195 120.75L159.541 120.994ZM162.707 142.48C161.99 138.942 161.358 135.344 160.831 131.781L163.47 131.392C163.99 134.906 164.611 138.458 165.321 141.948L162.707 142.48ZM168.159 163.496C167.071 160.068 166.059 156.557 165.153 153.061L167.733 152.39C168.629 155.841 169.627 159.306 170.702 162.689L168.159 163.496ZM174.646 184.006C173.723 180.606 172.695 177.152 171.587 173.734L174.123 172.912C175.245 176.369 176.286 179.868 177.219 183.309L174.646 184.006ZM179.147 204.944C178.607 201.496 177.947 197.954 177.183 194.416L179.79 193.853C180.565 197.441 181.234 201.033 181.781 204.532L179.147 204.944ZM181.046 226.233C180.99 222.777 180.794 219.188 180.465 215.561L183.121 215.321C183.455 219.012 183.655 222.669 183.713 226.189L181.046 226.233ZM74.3927 230.005L71.802 229.374C72.634 225.953 73.6567 222.43 74.8367 218.906L77.366 219.754C76.2087 223.208 75.2073 226.656 74.3927 230.005ZM182.089 247.926L179.463 247.456C180.066 244.092 180.505 240.538 180.765 236.896L183.425 237.085C183.158 240.822 182.709 244.469 182.089 247.926ZM69.0113 251.046V250.73C69.0113 247.357 69.2633 243.782 69.758 240.105L72.4007 240.46C71.922 244.021 71.678 247.476 71.678 250.73V251.028L69.0113 251.046ZM175.326 268.738L172.951 267.526C174.489 264.513 175.829 261.225 176.937 257.754L179.478 258.565C178.326 262.173 176.93 265.596 175.326 268.738ZM73.5047 272.562C71.9593 269.357 70.798 265.809 70.0513 262.021L72.6673 261.505C73.3713 265.073 74.4593 268.404 75.9073 271.404L73.5047 272.562ZM161.593 285.864L159.93 283.781C162.623 281.632 165.103 279.137 167.299 276.37L169.387 278.029C167.067 280.954 164.443 283.589 161.593 285.864ZM88.4367 288.726C85.15 286.752 82.234 284.41 79.774 281.765L81.726 279.949C84.0153 282.412 86.7353 284.594 89.81 286.44L88.4367 288.726ZM141.818 295.393L141.182 292.804C144.675 291.946 148.002 290.77 151.067 289.31L152.214 291.717C148.986 293.256 145.489 294.493 141.818 295.393ZM109.151 295.92C105.35 295.276 101.766 294.392 98.494 293.296L99.342 290.766C102.483 291.82 105.933 292.669 109.597 293.29L109.151 295.92ZM125.139 297.29C123.478 297.29 121.753 297.24 120.013 297.138L120.165 294.477C123.869 294.689 127.433 294.668 130.765 294.42L130.962 297.078C129.085 297.22 127.125 297.29 125.139 297.29Z" fill="#3367B1" />
  <path d="M257.874 33.9383C256.39 32.9463 254.894 31.9876 253.427 31.0876L254.821 28.8143C256.318 29.733 257.843 30.7103 259.355 31.7196L257.874 33.9383Z" fill="#3367B1" />
  <path d="M89.7527 21.8183C89.7527 21.8183 89.562 31.385 94.562 33.4703C98.59 32.6663 94.09 22.3636 94.09 22.3636L89.7527 21.8183Z" fill="#1F2F58" />
  <path d="M149.106 99.0263L152.478 97.137C152.101 97.8196 151.577 98.4089 150.857 98.8236C150.789 98.8623 150.086 98.9369 149.106 99.0263Z" fill="#8ECCE5" />
  <path d="M96.766 128.37C96.762 128.368 96.758 128.366 96.754 128.364L97.5127 127.938L96.766 128.37Z" fill="url(#paint4_radial)" />
  <path d="M105.215 132.209C102.514 130.988 99.55 129.644 96.766 128.37L97.5127 127.938L141.134 103.494L140.319 109.506L140.418 111.886L105.215 132.209Z" fill="#8ECCE5" />
  <path d="M111.779 135.168C110.069 134.398 107.758 133.358 105.215 132.209L140.418 111.886L140.694 118.474L111.779 135.168Z" fill="#60AFE4" />
  <path d="M135.959 207.988C135.921 207.988 135.882 207.988 135.843 207.986L135.498 207.97C135.342 207.961 135.181 207.945 135.015 207.921C134.895 207.906 134.777 207.893 134.653 207.869C134.475 207.841 134.294 207.802 134.11 207.762C133.986 207.732 133.863 207.708 133.731 207.674C133.537 207.622 133.331 207.557 133.126 207.492C132.998 207.453 132.875 207.416 132.743 207.369C132.513 207.289 132.277 207.192 132.038 207.093L131.691 206.956C131.329 206.794 130.958 206.617 130.578 206.416C124.234 203.068 122.883 202.188 121.65 201.481C121.438 201.361 121.282 201.226 121.151 201.088L121.062 200.989C120.949 200.844 120.855 200.69 120.801 200.518L120.794 200.492C120.742 200.322 120.717 200.132 120.709 199.932L120.705 199.814C120.699 199.306 120.791 198.705 120.886 197.958C120.91 197.768 121.037 197.606 121.213 197.456C120.899 197.221 114.763 136.506 114.763 136.506C114.763 136.506 113.617 135.993 111.779 135.168L140.694 118.474L140.717 119.024C146.063 123.87 150.682 129.312 151.931 134.421C152.819 138.064 153.393 142.961 153.755 148.208V152.64L154.003 152.497C154.062 153.732 154.111 154.973 154.151 156.209L153.755 156.438V161.266L154.271 160.969C154.293 162.252 154.307 163.516 154.317 164.741L153.755 165.065V169.893L154.319 169.568C154.313 170.93 154.299 172.214 154.283 173.386L153.755 173.692V178.521L154.186 178.273C154.145 179.81 154.111 180.694 154.111 180.694C154.111 180.694 154.054 180.797 153.97 180.934C155.657 182.232 161.689 186.932 163.151 189.049C163.299 189.262 163.393 189.481 163.461 189.692L163.462 189.697C163.726 190.536 163.395 191.33 162.565 191.836L162.242 191.997L162.071 192.076L161.763 192.177L161.49 192.252L161.177 192.309C161.061 192.328 160.943 192.346 160.822 192.356L160.495 192.377C160.41 192.38 160.323 192.382 160.237 192.382C160.183 192.382 160.129 192.382 160.074 192.38L159.729 192.366C159.573 192.354 159.411 192.338 159.246 192.317C159.126 192.302 159.007 192.286 158.883 192.265C158.706 192.237 158.525 192.197 158.341 192.156C158.215 192.128 158.094 192.101 157.963 192.068C157.767 192.018 157.562 191.953 157.357 191.888C157.229 191.846 157.105 191.809 156.974 191.762C156.743 191.682 156.507 191.585 156.267 191.489L155.922 191.346C155.559 191.19 155.189 191.013 154.81 190.812C148.465 187.464 147.114 186.58 145.881 185.877C145.669 185.754 145.513 185.622 145.382 185.481L145.293 185.382C145.179 185.24 145.086 185.082 145.031 184.913L145.025 184.885C144.973 184.716 144.947 184.528 144.938 184.328L144.935 184.208C144.934 183.966 144.95 183.697 144.983 183.404C144.818 183.336 144.706 183.281 144.706 183.281L139.365 135.965C139.365 135.965 135.903 146.396 130.545 146.396C130.005 146.396 129.445 146.29 128.867 146.056C132.898 151.045 127.578 146.158 128.309 151.44C130.277 165.664 130.314 196.609 130.314 196.609C130.314 196.609 130.23 196.7 130.102 196.822C132.167 198.418 137.55 202.672 138.919 204.653C139.069 204.869 139.162 205.085 139.23 205.298L139.231 205.304C139.495 206.14 139.165 206.937 138.334 207.44L138.011 207.601L137.841 207.682L137.533 207.781L137.259 207.856L136.946 207.914C136.83 207.934 136.713 207.95 136.591 207.964L136.266 207.981C136.165 207.985 136.063 207.988 135.959 207.988Z" fill="#CFDFE4" />
  <path d="M153.755 152.64V148.208C153.853 149.618 153.934 151.054 154.003 152.497L153.755 152.64Z" fill="#B5D2D8" />
  <path d="M153.755 161.266V156.438L154.151 156.209C154.205 157.813 154.243 159.406 154.271 160.969L153.755 161.266Z" fill="#B5D2D8" />
  <path d="M153.755 169.893V165.065L154.317 164.741C154.327 166.43 154.327 168.049 154.319 169.568L153.755 169.893Z" fill="#B5D2D8" />
  <path d="M153.755 178.521V173.692L154.283 173.386C154.255 175.362 154.218 177.03 154.186 178.273L153.755 178.521Z" fill="#B5D2D8" />
  <path d="M153.09 110.833C153.09 110.833 145.477 111.45 143.867 117.722C142.59 123.112 140.423 119.853 140.867 120.852C141.311 121.852 145.146 129.389 148.813 126.056C152.479 122.722 157.871 119.273 155.786 112.22C154.313 110.889 153.09 110.833 153.09 110.833Z" fill="#162337" />
  <path d="M132.385 123.941C132.385 123.941 124.771 124.558 123.162 130.83C121.885 136.22 121.83 136.442 122.274 137.442C122.718 138.441 124.441 142.497 128.107 139.164C131.774 135.83 139.23 134.828 137.146 127.774C135.671 126.442 132.385 123.941 132.385 123.941Z" fill="#1F2F58" />
  <path d="M119.21 33.5556C119.21 33.5556 119.073 32.205 115.418 40.313C111.765 48.4223 120.539 74.3223 122.622 77.1649C124.705 80.0089 150.814 88.0063 156.554 79.1423C152.971 77.3009 156.431 74.6543 155.727 70.5103C145.063 74.2423 129.695 67.8156 126.435 65.1116C121.001 60.6063 129.053 44.7743 119.21 33.5556Z" fill="url(#paint5_linear)" />
  <path d="M159.783 165.278C159.783 165.278 168.691 171.246 170.395 173.716C172.099 176.182 168.398 178.825 162.054 175.476C155.71 172.13 154.359 171.246 153.125 170.544C151.891 169.838 151.979 166.417 153.13 164.36C154.027 162.758 159.783 165.278 159.783 165.278Z" fill="#F25282" />
  <path d="M153.125 169.409C154.359 170.114 155.71 170.994 162.054 174.344C166.822 176.857 170.094 175.992 170.706 174.358C171.419 176.596 167.845 178.533 162.054 175.476C155.71 172.13 154.359 171.246 153.125 170.544C152.182 170.002 152.099 169.292 152.217 168.174C152.301 168.682 152.55 169.08 153.125 169.409Z" fill="#454547" />
  <path d="M92.8847 89.0796C92.8847 89.0796 93.1767 106.997 109.005 110.893C124.834 114.789 145.534 120.852 145.534 120.852L153.45 166.194C153.45 166.194 156.142 168.876 158.257 168.005C160.089 167.252 159.783 165.278 159.783 165.278C159.783 165.278 160.881 131.73 157.951 117.673C155.786 107.278 119.034 91.6116 119.034 91.6116L92.8847 89.0796Z" fill="url(#paint6_linear)" />
  <path d="M155.786 112.22C147.31 100.264 127.275 88.709 127.275 88.709L92.8847 89.0796C92.8847 89.0796 93.1767 106.997 109.005 110.893C122.402 114.19 138.981 122.481 142.979 124.334C143.113 116.972 148.717 109.034 155.786 112.22Z" fill="#1F2F58" />
  <path d="M136.531 180.858C136.531 180.858 144.461 186.852 146.163 189.32C147.869 191.786 144.167 194.429 137.823 191.08C131.479 187.734 130.129 186.852 128.894 186.148C127.661 185.442 127.658 181.694 128.997 179.309C129.895 177.708 136.531 180.858 136.531 180.858Z" fill="#F25282" />
  <path d="M128.894 185.013C130.129 185.718 131.479 186.598 137.823 189.948C142.591 192.461 145.863 191.596 146.475 189.964C147.189 192.2 143.614 194.137 137.823 191.08C131.479 187.734 130.129 186.852 128.894 186.148C127.951 185.606 127.869 184.896 127.987 183.778C128.07 184.286 128.321 184.685 128.894 185.013Z" fill="#454547" />
  <path d="M77.2127 99.6623C77.2127 99.6623 75.6847 117.518 91.0353 123.001C106.386 128.484 125.367 135.445 125.367 135.445L129.09 180.417C129.09 180.417 130.411 182.473 133.479 182.473C136.638 182.473 136.531 180.858 136.531 180.858C136.531 180.858 139.881 148.334 137.911 134.112C135.941 119.889 115.602 103.165 115.602 103.165L77.2127 99.6623Z" fill="url(#paint7_linear)" />
  <path d="M137.146 127.774C131.315 115.358 115.602 103.165 115.602 103.165L77.2127 99.6623C77.2127 99.6623 75.6847 117.518 91.0353 123.001C104.527 127.82 120.042 137.388 123.201 139.278C125.262 132.476 128.398 125.736 137.146 127.774Z" fill="#223E73" />
  <path d="M129.507 90.1956C129.507 90.1956 131.214 36.6663 114.885 30.413C98.5553 24.161 83.5967 39.041 77.2127 53.4516C70.8313 67.8636 72.5127 92.9516 77.2127 102.268C99.6127 117.685 130.145 97.5983 129.507 90.1956Z" fill="#F793B9" />
  <path d="M77.2127 53.4517C83.5967 39.041 98.5553 24.161 114.885 30.413C115.422 30.6183 115.935 30.881 116.433 31.1837C104.407 32.7117 94.1833 44.257 89.1953 55.5197C82.8153 69.9303 84.4953 95.0183 89.1953 104.334C91.4313 105.873 93.7513 107.046 96.11 107.925C89.7313 107.946 83.182 106.377 77.2127 102.268C72.5127 92.9516 70.8313 67.8636 77.2127 53.4517Z" fill="#F9B0D2" />
  <path d="M119.486 6.55164C119.486 6.55164 123.561 13.077 119.909 27.237C116.941 38.7103 116.502 45.057 111.714 45.5423C106.922 46.029 92.586 42.5263 94.15 30.5836C92.7233 30.277 89.8046 24.813 92.106 20.4676C94.4086 16.125 96.0246 20.8716 96.0246 20.8716C96.0246 20.8716 95.9326 11.4036 102.625 7.95164C109.318 4.50097 119.486 6.55164 119.486 6.55164Z" fill="url(#paint8_linear)" />
  <path d="M103.753 17.9289C103.777 17.3796 108.861 24.6343 117.03 22.2903C114.223 21.4396 113.571 19.4623 113.571 19.4623C113.571 19.4623 116.31 23.1103 121.003 21.877C119.001 21.0476 118.034 20.1569 118.034 20.1569C118.034 20.1569 121.149 21.797 124.13 20.609C122.25 19.7983 122.531 18.5569 122.531 18.5569C122.531 18.5569 124.194 20.221 127.427 17.4023C126.111 17.233 126.242 11.197 121.491 6.8503C116.743 2.50764 112.883 1.49162 106.521 2.56495C108.081 0.947618 109.729 0.0489632 111.975 0.408963C109.434 -1.0097 104.062 1.5343 102.474 3.88364C97.5326 1.98764 88.222 5.27563 91.2953 23.2796C91.3446 22.8263 91.77 19.8983 93.514 19.3436C95.2607 18.7903 96.73 22.2223 96.3313 23.0903C95.9367 23.9596 95.7473 29.0956 95.7473 29.0956L98.002 30.277C98.002 30.277 97.302 25.813 98.91 24.4676C100.518 23.1236 103.445 24.7889 103.753 17.9289Z" fill="#1F2F58" />
  <path d="M158.379 58.289L148.703 71.273L117.443 63.9876L119.239 104.389L147.67 104.045L157.034 92.6503L158.379 58.289Z" fill="white" />
  <path d="M158.379 52.8263L148.703 71.273L147.67 104.045L157.034 92.6503L158.379 52.8263Z" fill="#EBF9FE" />
  <path d="M157.799 73.1103C157.799 73.1103 155.65 77.5063 154.319 78.0116C152.989 78.5156 154.019 85.8383 158.102 83.489C162.185 81.1396 160.261 73.3436 157.799 73.1103Z" fill="url(#paint9_linear)" />
  <path d="M130.978 85.877C128.706 85.7183 126.123 86.2703 122.129 86.3436C118.134 86.417 118.281 84.1623 118.127 80.9396C116.866 81.8756 116.099 84.3903 114.061 85.869C112.023 87.349 111.061 85.869 111.061 85.869L110.63 86.1916C96.1673 83.6383 85.9513 80.0503 83.658 76.6116C81.31 73.0876 87.7567 62.4409 88.3127 52.8263C88.3127 52.8263 89.5993 40.7703 81.8607 45.153C74.1207 49.537 71.534 80.4329 71.534 83.9569C71.534 87.4769 97.4753 92.3703 111.041 93.6103C113.333 94.9303 116.111 96.1316 118.855 96.3009C130.542 96.0743 133.251 86.0343 130.978 85.877Z" fill="url(#paint10_linear)" />
  <path d="M90.2887 51.7743C90.2887 51.7743 89.5993 40.7703 81.8607 45.153C77.8913 47.401 73.7993 59.253 70.75 66.945C75.2833 70.3503 80.1327 72.113 85.27 73.1103C87.1687 70.049 91.1847 61.9276 90.2887 51.7743Z" fill="#F46AA1" />
  <defs>
    <radialGradient id="paint0_radial" cx="0" cy="0" r="1" gradientUnits="userSpaceOnUse" gradientTransform="translate(262.047 203.44) scale(333.333)">
      <stop stop-color="#DAEFF4" />
      <stop offset="1" stop-color="#BDD0D5" />
    </radialGradient>
    <radialGradient id="paint1_radial" cx="0" cy="0" r="1" gradientUnits="userSpaceOnUse" gradientTransform="translate(262.047 203.44) scale(333.333)">
      <stop stop-color="#B9DEE9" />
      <stop offset="1" stop-color="#9FBFCA" />
    </radialGradient>
    <radialGradient id="paint2_radial" cx="0" cy="0" r="1" gradientUnits="userSpaceOnUse" gradientTransform="translate(262.047 203.439) scale(333.333 333.342)">
      <stop stop-color="#F279AA" />
      <stop offset="1" stop-color="#D16A92" />
    </radialGradient>
    <radialGradient id="paint3_radial" cx="0" cy="0" r="1" gradientUnits="userSpaceOnUse" gradientTransform="translate(262.047 203.44) scale(333.333 333.333)">
      <stop stop-color="#F279AA" />
      <stop offset="1" stop-color="#D16A92" />
    </radialGradient>
    <radialGradient id="paint4_radial" cx="0" cy="0" r="1" gradientUnits="userSpaceOnUse" gradientTransform="translate(262.046 203.439) scale(333.33 333.332)">
      <stop stop-color="#E4E4E3" />
      <stop offset="1" stop-color="#C7C6C4" />
    </radialGradient>
    <linearGradient id="paint5_linear" x1="114.538" y1="58.3356" x2="156.554" y2="58.3356" gradientUnits="userSpaceOnUse">
      <stop stop-color="#F9AD59" />
      <stop offset="1" stop-color="#FDDEBB" />
    </linearGradient>
    <linearGradient id="paint6_linear" x1="92.8847" y1="128.63" x2="159.984" y2="128.63" gradientUnits="userSpaceOnUse">
      <stop stop-color="#FDDEBB" />
      <stop offset="1" stop-color="#F9AD59" />
    </linearGradient>
    <linearGradient id="paint7_linear" x1="77.17" y1="141.068" x2="138.532" y2="141.068" gradientUnits="userSpaceOnUse">
      <stop stop-color="#FDDEBB" />
      <stop offset="1" stop-color="#F9AD59" />
    </linearGradient>
    <linearGradient id="paint8_linear" x1="91.4006" y1="22.4516" x2="120.213" y2="26.9488" gradientUnits="userSpaceOnUse">
      <stop stop-color="#FDDEBB" />
      <stop offset="1" stop-color="#F9AD59" />
    </linearGradient>
    <linearGradient id="paint9_linear" x1="153.959" y1="78.037" x2="160.502" y2="79.0581" gradientUnits="userSpaceOnUse">
      <stop stop-color="#F9AD59" />
      <stop offset="1" stop-color="#FDDEBB" />
    </linearGradient>
    <linearGradient id="paint10_linear" x1="71.534" y1="70.2476" x2="131.714" y2="70.2476" gradientUnits="userSpaceOnUse">
      <stop stop-color="#F9AD59" />
      <stop offset="1" stop-color="#FDDEBB" />
    </linearGradient>
  </defs>
</svg>

