<svg width="31" height="25" viewBox="0 0 31 25" fill="none" xmlns="http://www.w3.org/2000/svg">
<path d="M24.1189 15.4896C23.887 15.398 23.6841 15.4382 23.5105 15.6099L22.3983 16.7102C22.2941 16.8131 22.2417 16.9394 22.2417 17.0882V19.2546C22.2417 20.0112 21.97 20.6584 21.4256 21.1974C20.8808 21.736 20.2266 22.0053 19.462 22.0053H5.00438C4.23982 22.0053 3.58524 21.736 3.0407 21.1974C2.49616 20.6585 2.22405 20.0112 2.22405 19.2546V4.95119C2.22405 4.19471 2.49616 3.54715 3.0407 3.00835C3.58524 2.46972 4.23982 2.20038 5.00438 2.20038H19.4621C19.7168 2.20038 19.9776 2.23476 20.244 2.30359C20.4529 2.3723 20.6379 2.32653 20.7999 2.16606L21.6511 1.32365C21.7903 1.1863 21.8421 1.01998 21.8075 0.825188C21.7728 0.641894 21.6684 0.510022 21.4946 0.429876C20.869 0.143734 20.1915 0 19.4617 0H5.00438C3.62596 0 2.44711 0.48425 1.46813 1.45275C0.489458 2.42137 0 3.58738 0 4.95131V19.255C0 20.6187 0.489458 21.7849 1.46819 22.7534C2.44711 23.7221 3.62602 24.2064 5.00444 24.2064H19.4617C20.8401 24.2064 22.0188 23.7221 22.9977 22.7534C23.9769 21.7849 24.4663 20.6187 24.4663 19.255V15.9886C24.4663 15.7475 24.3502 15.5815 24.1189 15.4896Z" fill="white" fill-opacity="0.68"/>
<path d="M11.1201 14.8546V19.8055H16.1248L27.8019 8.2527L22.7973 3.30151L11.1201 14.8546ZM15.4294 18.1553L14.4562 18.1548V16.5049H12.7882V15.5424L14.804 13.5481L17.4452 16.1614L15.4294 18.1553ZM23.0577 6.3443L16.9757 12.3615C16.7788 12.5566 16.5876 12.5622 16.4023 12.3788C16.2171 12.1954 16.2227 12.0063 16.4197 11.8117L22.5018 5.79442C22.6986 5.59938 22.8894 5.59372 23.0752 5.77714C23.261 5.96055 23.2543 6.14957 23.0577 6.3443Z" fill="white" fill-opacity="0.68"/>
<path d="M30.5131 3.2327L27.8719 0.619604C27.5476 0.298657 27.1539 0.138184 26.6903 0.138184C26.2269 0.138184 25.833 0.298657 25.509 0.619604L23.9102 2.20103L28.9147 7.15246L30.5131 5.57073C30.8374 5.24997 30.9995 4.86019 30.9995 4.40172C30.9995 3.94324 30.8373 3.55365 30.5131 3.2327Z" fill="white" fill-opacity="0.68"/>
</svg>
