<svg width="163" height="379" viewBox="0 0 163 379" fill="none" xmlns="http://www.w3.org/2000/svg">
<path d="M48.2523 374.921C48.2523 377.174 46.4259 379 44.173 379C41.9201 379 40.0938 377.174 40.0938 374.921C40.0938 372.668 41.9201 370.842 44.173 370.842C46.4259 370.842 48.2523 372.668 48.2523 374.921Z" fill="#17243F"/>
<path d="M50.0559 374.561H38.8921V373.536C38.8921 370.453 41.391 367.954 44.474 367.954C47.557 367.954 50.0559 370.453 50.0559 373.536V374.561Z" fill="#C7C6CB"/>
<path d="M132.144 62.3611H113.61V72.0519H132.144V62.3611Z" fill="#9892AB"/>
<path d="M140.641 41.6742C140.641 51.6929 132.519 59.8146 122.501 59.8146C112.482 59.8146 104.36 51.6929 104.36 41.6742C104.36 31.6556 112.482 23.5338 122.501 23.5338C132.519 23.5338 140.641 31.6556 140.641 41.6742Z" fill="#FBC038"/>
<path d="M132.536 63.5564H113.238V50.937H132.536V63.5564Z" fill="#FBC038"/>
<path d="M136.396 42.0598C136.396 49.6272 130.261 55.7619 122.694 55.7619C115.126 55.7619 108.992 49.6272 108.992 42.0598C108.992 34.493 115.126 28.3582 122.694 28.3582C130.261 28.3582 136.396 34.493 136.396 42.0598Z" fill="#FBDA4C"/>
<path d="M118.641 62.9022L113.334 37.8144C113.334 37.8144 116.325 41.1919 118.931 40.6125C121.535 40.0335 122.211 35.4985 119.799 35.5952C117.387 35.6919 117.676 42.2532 123.369 42.1565C130.491 42.0358 128.193 36.2708 126.457 36.367C123.744 36.5179 123.562 42.1565 127.904 42.2532C132.246 42.3493 133.79 38.1038 133.79 38.1038L126.649 62.7089" stroke="white" stroke-width="4.02484" stroke-miterlimit="10" stroke-linejoin="round"/>
<path d="M124.019 77.7622H121.176C117.67 77.7622 114.555 75.4331 113.431 71.9722H131.764C130.64 75.4331 127.524 77.7622 124.019 77.7622Z" fill="#9892AB"/>
<path d="M107.936 23.9052C108.559 23.2306 108.653 22.2215 108.166 21.4431L101.766 11.2275C100.328 8.93313 97.1311 8.57053 95.2158 10.4854C93.4155 12.2857 93.6114 15.2597 95.6326 16.8089L105.202 24.1404C106.037 24.7808 107.222 24.679 107.936 23.9052Z" fill="#FBC038"/>
<path d="M99.8373 35.8366C99.8429 34.9181 99.2338 34.1089 98.349 33.8614L86.7397 30.6143C84.1324 29.8849 81.5235 31.7691 81.3961 34.4736C81.2765 37.0175 83.4235 39.0853 85.9608 38.87L97.9726 37.8517C99.0215 37.7627 99.8296 36.8892 99.8373 35.8366Z" fill="#FBC038"/>
<path d="M122.058 18.4746C122.969 18.3585 123.69 17.6466 123.818 16.7373L125.493 4.79916C125.869 2.11766 123.655 -0.217106 120.957 0.0161114C118.42 0.236032 116.656 2.63884 117.206 5.12446L119.813 16.8943C120.04 17.9223 121.014 18.6071 122.058 18.4746Z" fill="#FBC038"/>
<path d="M135.474 24.1491C136.253 24.6365 137.262 24.5419 137.937 23.919L146.792 15.7389C148.781 13.9018 148.545 10.692 146.309 9.16485C144.206 7.72872 141.32 8.47182 140.172 10.7447L134.737 21.5049C134.263 22.4444 134.582 23.5906 135.474 24.1491Z" fill="#FBC038"/>
<path d="M144.621 33.4651C144.915 34.335 145.756 34.9007 146.673 34.8455L158.705 34.1197C161.408 33.9566 163.258 31.3231 162.494 28.7255C161.776 26.2824 159.071 25.0298 156.743 26.0629L145.724 30.9513C144.762 31.3784 144.284 32.4678 144.621 33.4651Z" fill="#FBC038"/>
<path d="M120.285 118.295L123.265 105.692C123.455 104.887 122.952 104.073 122.148 103.883L121.814 103.804C121.01 103.614 120.197 104.117 120.006 104.921L117.026 117.525C116.836 118.329 117.339 119.143 118.143 119.333L118.477 119.412C119.281 119.602 120.094 119.1 120.285 118.295Z" fill="#FBC3AC"/>
<path d="M120.648 122.66L124.79 113.048C125.116 112.289 124.763 111.401 124.003 111.074L123.689 110.938C122.93 110.611 122.042 110.964 121.714 111.723L117.573 121.336C117.246 122.095 117.599 122.983 118.358 123.31L118.673 123.446C119.432 123.773 120.321 123.42 120.648 122.66Z" fill="#FBC3AC"/>
<path d="M117.731 123.483L117.466 113.02C117.446 112.194 116.753 111.535 115.927 111.556L115.583 111.564C114.757 111.585 114.098 112.279 114.119 113.104L114.384 123.568C114.405 124.394 115.098 125.053 115.925 125.032L116.268 125.023C117.094 125.002 117.752 124.309 117.731 123.483Z" fill="#FBC3AC"/>
<path d="M122.438 126.548L127.269 115.209C127.593 114.448 127.236 113.561 126.475 113.237L126.16 113.102C125.4 112.779 124.513 113.136 124.189 113.896L119.358 125.235C119.034 125.996 119.391 126.883 120.151 127.207L120.467 127.342C121.227 127.665 122.115 127.308 122.438 126.548Z" fill="#FBC3AC"/>
<path d="M124.325 129.491L129.156 118.152C129.48 117.391 129.123 116.505 128.363 116.18L128.047 116.046C127.286 115.722 126.4 116.079 126.075 116.84L121.245 128.179C120.921 128.94 121.278 129.827 122.039 130.15L122.354 130.285C123.114 130.609 124.001 130.252 124.325 129.491Z" fill="#FBC3AC"/>
<path d="M118.232 113.16C118.182 113.285 117.427 114.612 116.604 116.048C115.184 118.528 114.374 121.311 114.242 124.166L113.988 129.632C113.988 129.632 122.656 131.195 122.904 130.889C128.971 123.422 126.773 118.504 126.773 118.504L118.232 113.16Z" fill="#FBC3AC"/>
<path d="M111.56 129.191L113.372 124.561L126.656 130.197L123.838 135.43L111.56 129.191Z" fill="white"/>
<path d="M126.454 133.619C126.454 133.619 114.816 162.102 114.781 162.199C111.359 171.002 102.679 177.782 93.2457 176.69C91.8315 176.527 88.3077 175.614 86.8046 175.08C84.9143 174.406 64.4698 161.603 64.4698 161.603L62.0369 138.375C62.0369 138.375 87.2674 156.056 88.7235 156.977C91.2163 158.553 94.5775 159.265 95.9016 158.761C98.2292 157.907 99.2654 156.835 100.426 154.88C106.158 145.263 111.563 127.183 111.563 127.183L126.454 133.619Z" fill="#1A2545"/>
<path d="M61.8968 349.759C61.8134 350.875 61.373 366.809 61.373 366.809L73.1572 367.029L72.8959 347.057L61.8968 349.759Z" fill="#551635"/>
<path d="M56.4673 241.439C56.4468 241.573 56.4581 242.313 56.4975 243.581C57.0749 262.137 60.3267 363.35 60.3267 363.35L75.5268 362.833L79.5472 244.347L56.4673 241.439Z" fill="#171D39"/>
<path d="M60.281 376.573L91.3707 376.798C93.2247 376.811 94.7375 375.31 94.7493 373.445C94.759 372.009 93.8645 370.724 92.5194 370.241L77.1725 364.733L60.3567 365.023L60.281 376.573Z" fill="#5D5B72"/>
<path d="M76.7961 369.306L80.4443 365.38" stroke="#171D39" stroke-width="1.95175" stroke-miterlimit="10" stroke-linecap="round"/>
<path d="M79.4714 370.44L83.1196 366.514" stroke="#171D39" stroke-width="1.95175" stroke-miterlimit="10" stroke-linecap="round"/>
<path d="M82.0349 371.958L86.1413 367.507" stroke="#171D39" stroke-width="1.95175" stroke-miterlimit="10" stroke-linecap="round"/>
<path d="M35.2189 349.565C35.1549 350.676 34.9949 366.522 34.9949 366.522L46.7811 366.532L46.1684 346.684L35.2189 349.565Z" fill="#551635"/>
<path d="M27.881 241.99C27.8631 242.124 27.8876 242.859 27.9495 244.119C28.8532 262.553 33.8874 363.102 33.8874 363.102L49.0767 362.319L51.009 244.472L27.881 241.99Z" fill="#171D39"/>
<path d="M33.8357 376.308L64.9023 377.509C66.7553 377.58 68.3152 376.136 68.3863 374.284C68.4415 372.857 67.5884 371.552 66.2592 371.03L51.0959 365.073L34.2796 364.834L33.8357 376.308Z" fill="#716C84"/>
<path d="M50.574 369.606L54.3448 365.82" stroke="#171D39" stroke-width="1.94604" stroke-miterlimit="10" stroke-linecap="round"/>
<path d="M53.2124 370.817L56.9833 367.031" stroke="#171D39" stroke-width="1.94604" stroke-miterlimit="10" stroke-linecap="round"/>
<path d="M55.7258 372.406L59.9718 368.112" stroke="#171D39" stroke-width="1.94604" stroke-miterlimit="10" stroke-linecap="round"/>
<path d="M80.3616 238.754C80.6884 242.135 79.7847 245.35 78.0187 247.957C75.7622 251.303 72.0747 253.654 67.7361 254.073L44.2496 256.342C43.5509 256.41 42.8626 256.424 42.1839 256.385C40.4363 256.306 38.7613 255.891 37.2254 255.207C36.9518 255.09 36.6838 254.959 36.4224 254.819C32.3559 252.7 29.4054 248.628 28.9313 243.724L28.6418 236.23L79.1909 230.903L80.3616 238.754Z" fill="#171D39"/>
<path d="M50.8317 141.834L45.8778 142.397C42.8363 142.743 40.0652 140.537 39.72 137.495L37.6042 118.874C37.259 115.833 39.4648 113.062 42.5059 112.716L47.4602 112.153C50.5018 111.807 53.2728 114.013 53.618 117.055L55.7333 135.676C56.0791 138.718 53.8732 141.489 50.8317 141.834Z" fill="#F79E87"/>
<path d="M75.2724 93.3045C75.2888 93.6814 75.2975 94.0583 75.2985 94.4363C75.2919 96.255 75.0986 98.0435 74.7262 99.763C73.1387 107.121 68.3511 113.346 61.8266 116.817C58.5871 118.544 54.917 119.588 51.0019 119.756C44.6636 120.029 39.5077 123.094 34.9037 119.439C33.4195 118.262 32.0677 116.933 30.8868 115.458C30.4224 114.877 29.981 114.287 29.5693 113.673C27.0576 109.927 24.7577 100.316 24.5495 95.4858C23.9639 81.863 34.224 70.2854 47.6678 69.0989C48.0514 69.0666 48.436 69.0426 48.8206 69.0257C57.3586 68.6585 65.086 72.5496 69.9642 78.8209L69.9723 78.828C71.4003 80.6703 72.5827 82.7232 73.4716 84.9275C74.516 87.5262 75.1456 90.3504 75.2724 93.3045Z" fill="#E97D23"/>
<path d="M42.2661 102.299C42.2988 102.851 42.2323 103.392 42.0646 103.899C41.8779 104.507 41.5623 105.166 41.1363 105.65C40.3635 106.519 39.2751 107.191 38.0216 107.266L35.3283 107.429L33.2626 107.558L32.8739 101.427L32.8811 101.427L32.8049 100.293L32.7502 99.4126L32.7036 98.6066L32.6877 98.3984L32.6944 98.3974L37.4472 98.1049C38.6481 98.0292 39.7671 98.4276 40.6289 99.1339C41.1511 99.5625 41.5751 100.116 41.8631 100.736C42.0983 101.221 42.2328 101.739 42.2661 102.299Z" fill="#FABEBD"/>
<path d="M74.4949 96.0156L75.1107 105.93L75.2038 107.414C75.2693 108.391 75.2529 109.369 75.1808 110.317C74.4786 119.216 68.0139 126.72 59.2749 128.824C59.013 128.899 58.7415 128.953 58.476 128.998C57.537 129.202 56.5816 129.318 55.5976 129.385C54.6427 129.448 53.7099 129.434 52.778 129.367C50.9609 129.243 49.1994 128.879 47.5342 128.31L47.5188 128.304C40.2661 125.83 34.7384 119.501 33.5963 111.69C33.5615 111.454 33.5283 111.224 33.5084 110.986C33.4623 110.713 33.4455 110.43 33.4281 110.146L33.4117 109.998L33.3651 109.327L33.2623 107.558L32.8726 101.488L32.8736 101.427L32.8726 101.42L32.8046 100.293L32.7499 99.4126L32.7033 98.6066L32.6941 98.3974C32.6179 96.9935 32.7463 95.6116 33.0076 94.2752C33.1795 93.3387 33.4199 92.4176 33.7022 91.5287C33.738 91.3819 33.7764 91.2571 33.8214 91.1247C34.0536 90.3918 34.3389 89.6609 34.6581 88.9633L34.6637 88.948C35.8712 86.2864 37.6362 83.9 39.8201 81.9611C40.2569 81.574 40.71 81.1991 41.1734 80.8462C44.4062 78.4204 48.3469 76.8682 52.6588 76.6038C58.4264 76.2493 63.8584 78.2389 67.8876 81.7627C70.0464 83.6438 71.5874 85.9627 72.8164 88.5807C73.2905 89.5786 73.6418 90.6204 73.8914 91.6965C74.2218 93.0784 74.408 94.5227 74.4949 96.0156Z" fill="#FBC3AC"/>
<path d="M34.9452 101.274L35.3283 107.429L35.583 111.584L33.9489 111.688C33.8292 111.693 33.71 111.7 33.5965 111.69C30.8521 111.671 28.5317 109.433 28.3568 106.703C28.2632 105.287 28.7833 104.04 29.6758 103.037C30.4757 102.143 31.5998 101.587 32.8738 101.427L32.881 101.427C33.0278 101.395 33.1536 101.381 33.304 101.378L34.9452 101.274Z" fill="#FABEBD"/>
<path d="M55.0183 129.376C55.0183 129.376 51.3374 130.044 47.5344 128.31L47.519 128.304C40.2662 125.83 34.7385 119.501 33.5965 111.69C30.8521 111.671 28.5317 109.433 28.3568 106.703C28.2632 105.287 28.7833 104.04 29.6758 103.037C30.4757 102.143 31.5998 101.587 32.8738 101.427L32.8728 101.42L32.8048 100.293L32.7501 99.4126L32.7035 98.6066L32.6877 98.3984L32.6943 98.3974C32.6181 96.9935 32.7465 95.6116 33.0078 94.2752C35.6336 92.3915 38.4552 91.7701 40.478 95.094C40.478 95.094 40.4954 96.6999 40.6288 99.1339C40.7235 100.956 40.8769 103.238 41.1362 105.65C41.6548 110.609 42.5805 116.116 44.2386 119.331C47.7676 126.195 55.0183 129.376 55.0183 129.376Z" fill="#F79E87"/>
<path d="M74.0969 81.5883L39.844 85.4798C37.8729 85.7033 36.0777 84.2744 35.8537 82.3038L35.7606 81.486C35.5371 79.5154 36.9661 77.7197 38.9366 77.4962L73.1901 73.6046C75.1607 73.3806 76.9564 74.8101 77.1804 76.7807L77.2729 77.5985C77.4969 79.5691 76.068 81.3648 74.0969 81.5883Z" fill="#E97D23"/>
<path d="M81.3347 84.0443C81.8656 85.8057 81.4308 87.5814 80.4069 88.8677C79.5656 89.9248 78.3125 90.668 76.8738 90.8316L46.3862 94.2951C42.0133 94.7917 38.871 98.7396 39.3681 103.112L39.9282 108.041C40.1138 109.676 38.9278 111.167 37.2917 111.353L36.5874 111.433C34.9447 111.62 33.4615 110.439 33.2748 108.797L31.5881 93.9479C31.5748 93.8292 31.5697 93.7172 31.5717 93.6042C30.9135 92.8375 30.4731 91.8658 30.3514 90.7979C30.1872 89.351 30.6312 87.9711 31.472 86.9068C32.3133 85.8491 33.5663 85.106 35.0055 84.9429L75.4633 80.3465C78.0445 80.0535 80.5854 81.5571 81.3347 84.0443Z" fill="#E97D23"/>
<path d="M72.4321 96.971L65.6396 97.7422C65.0596 97.8082 64.5313 97.3878 64.4653 96.8083L64.4387 96.5674C64.3727 95.988 64.7931 95.4597 65.3726 95.3937L72.1651 94.6219C72.7446 94.5559 73.2729 94.9768 73.3388 95.5563L73.3665 95.7972C73.4319 96.3767 73.0115 96.905 72.4321 96.971Z" fill="#E97D23"/>
<path d="M56.4853 98.7825L49.6933 99.5538C49.1133 99.6198 48.5855 99.1994 48.5195 98.6194L48.4919 98.379C48.4259 97.7995 48.8464 97.2712 49.4263 97.2052L56.2183 96.4335C56.7983 96.3675 57.3261 96.7884 57.3921 97.3679L57.4197 97.6088C57.4857 98.1882 57.0653 98.7166 56.4853 98.7825Z" fill="#E97D23"/>
<path d="M59.2 115.413C60.3967 116.79 61.8579 117.2 63.4378 117.102C65.3219 116.985 67.3396 115.908 67.8101 114.333L59.2 115.413Z" fill="white"/>
<path d="M65.9184 109.222L65.7915 109.232C65.88 110.289 65.0622 111.23 62.795 111.421L61.5859 103.149C64.3442 105.935 65.5573 107.518 65.9184 109.222Z" fill="#F79E87"/>
<path d="M29.9467 249.661C29.9467 249.661 50.5994 247.421 50.3508 246.675C50.1012 245.928 50.1012 237.22 50.1012 237.22C50.1012 237.22 66.5242 234.482 66.5242 235.478C66.5242 236.473 68.0171 244.186 68.0171 244.186L80.2094 241.947L79.9603 229.008L26.9609 234.482L29.9467 249.661Z" fill="#16192C"/>
<path d="M67.7728 228.568L45.8354 230.482L37.4697 134.643L59.4076 132.728L67.7728 228.568Z" fill="#EFF0F2"/>
<path d="M50.3045 143.614L44.1099 136.249L48.921 132.769L55.1294 135.287L50.3045 143.614Z" fill="#E12A33"/>
<path d="M59.7124 137.971L49.3276 133.139L37.8329 140.231L37.1838 132.795L59.0593 131.253L59.7124 137.971Z" fill="white"/>
<path d="M69.033 232.676L46.0769 235.033L45.6672 230.338L68.6234 227.981L69.033 232.676Z" fill="#9892AB"/>
<path d="M64.0684 233.558L56.074 234.256L55.6521 229.423L63.6465 228.725L64.0684 233.558Z" fill="#1A2445"/>
<path d="M46.9295 243.973C46.9295 243.973 42.2569 245.525 35.1724 246.272C32.5972 246.548 29.701 246.72 26.5955 246.668C26.4088 246.668 26.2303 246.6 26.0585 246.548L21.0417 180.553C19.7206 169.505 20.1088 163.645 19.9672 154.531C19.9452 153.277 19.915 151.963 19.87 150.567C19.8398 149.739 19.9298 148.962 20.1165 148.223C21.0867 144.349 24.7517 141.647 28.7604 139.632C31.1719 138.423 33.7097 137.459 35.8516 136.653C36.852 136.272 36.2479 136.594 37.3225 136.444L46.9295 243.973Z" fill="#1A2545"/>
<path d="M83.1928 239.956L79.1171 240.337L69.7562 241.203C69.7562 241.203 58.843 135.84 59.806 136.198C61.4406 136.81 63.2025 137.758 64.9338 138.997C68.4873 141.527 71.9134 145.282 73.8319 149.851C74.3842 151.15 74.8097 152.523 75.0711 153.949C75.0859 154.001 75.1007 154.061 75.1084 154.113C76.7358 163.116 83.1928 239.956 83.1928 239.956Z" fill="#1A2545"/>
<path d="M50.4224 143.987L58.6336 229.831" stroke="#9892AB" stroke-width="1.94604" stroke-miterlimit="10"/>
<path d="M42.1193 188.699C42.5642 189.589 31.1912 156.601 31.1912 156.601L34.9038 152.869L28.3323 139.645L37.0539 133.83C37.0539 133.83 41.3731 187.207 42.1193 188.699Z" fill="#2C3467"/>
<path d="M64.4104 188.308C64.1383 189.266 69.0124 154.859 69.0124 154.859L64.8661 151.761L67.9429 139.463L58.8582 132.74C58.8582 132.74 64.8676 186.703 64.4104 188.308Z" fill="#2C3467"/>
<path d="M33.955 252C34.0107 251.874 40.4298 245.888 39.4786 244.487C37.8936 242.156 35.7404 239.752 33.5213 237.849L29.2727 234.204C29.2727 234.204 23.8908 239.737 23.5998 240.016C19.5486 243.891 28.8533 250.097 28.8533 250.097C28.8533 250.097 32.7173 254.81 33.955 252Z" fill="#F79E87"/>
<path d="M34.149 244.28L44.0357 253.1C44.6663 253.663 45.6437 253.607 46.2063 252.976L46.4395 252.714C47.0026 252.083 46.9469 251.107 46.3157 250.544L36.4295 241.723C35.7989 241.161 34.8215 241.217 34.259 241.848L34.0257 242.109C33.4626 242.74 33.5184 243.716 34.149 244.28Z" fill="#F79E87"/>
<path d="M33.5054 249.133L41.4952 256.261C42.1269 256.824 43.1032 256.768 43.6658 256.137L43.8995 255.876C44.4621 255.245 44.4069 254.268 43.7757 253.705L35.786 246.577C35.1554 246.014 34.1785 246.07 33.6154 246.701L33.3822 246.963C32.8191 247.594 32.8748 248.571 33.5054 249.133Z" fill="#F79E87"/>
<path d="M27.098 248.83L36.5065 257.224C37.1376 257.787 38.1144 257.732 38.6775 257.1L38.9108 256.839C39.4733 256.208 39.4181 255.231 38.7865 254.669L29.3779 246.274C28.7468 245.712 27.7705 245.767 27.2079 246.398L26.9742 246.66C26.4111 247.291 26.4668 248.267 27.098 248.83Z" fill="#F79E87"/>
<path d="M28.6539 238.16L40.8667 243.297C41.6456 243.624 42.5519 243.255 42.8792 242.476L43.0158 242.152C43.3446 241.37 42.9774 240.468 42.1944 240.139L29.9816 235.003C29.2022 234.675 28.2964 235.044 27.9686 235.824L27.8325 236.147C27.5047 236.927 27.874 237.833 28.6539 238.16Z" fill="#F79E87"/>
<path d="M32.2923 234.232L31.0541 233.128L28.3025 230.68L20.4289 239.507L18.7815 241.36L19.3108 241.83L20.4682 242.87L22.7651 244.915L23.2045 244.421L28.7521 238.198L30.9999 235.682L31.1631 235.502L32.2923 234.232Z" fill="white"/>
<path d="M27.6601 154.977L23.9 145.656L22.872 144.783C22.7436 144.934 20.9924 147.01 18.5221 150.394C16.414 153.287 13.7739 157.14 11.1671 161.576C3.18752 175.158 -0.545002 187.321 0.0641279 197.736C1.33046 219.38 17.6527 241.613 18.3467 242.549L19.3108 241.83L21.0865 240.516L28.3971 235.096L29.4266 234.34L31.054 233.128L32.1598 232.31C32.0289 232.128 18.2015 213.213 17.2338 196.727C16.4984 184.163 22.7359 174.66 29.1116 166.298C30.0224 165.112 26.9722 155.787 27.6601 154.977Z" fill="#1A2545"/>
<path d="M48.5562 140.628L50.4224 200.345L56.394 207.996L60.3132 199.972L51.5425 140.628H48.5562Z" fill="#E12A33"/>
<path d="M51.5186 105.419C51.5186 105.419 52.6422 103.157 54.736 103.042C56.8299 102.928 57.8379 104.464 57.8379 104.464" stroke="#171D39" stroke-width="2.55492" stroke-miterlimit="10" stroke-linecap="round"/>
<path d="M66.5298 103.332C66.5298 103.332 67.2121 100.974 68.9545 100.837C70.697 100.7 71.9634 102.311 71.9634 102.311" stroke="#171D39" stroke-width="2.32887" stroke-miterlimit="10" stroke-linecap="round"/>
<path d="M132.694 64.6391H112.693C111.931 64.6391 111.308 64.0156 111.308 63.2531V62.937C111.308 62.1749 111.931 61.5515 112.693 61.5515H132.694C133.456 61.5515 134.08 62.1749 134.08 62.937V63.2531C134.08 64.0156 133.456 64.6391 132.694 64.6391Z" fill="#52526E"/>
<path d="M132.694 69.5152H112.693C111.931 69.5152 111.308 68.8912 111.308 68.1292V67.8131C111.308 67.0511 111.931 66.4271 112.693 66.4271H132.694C133.456 66.4271 134.08 67.0511 134.08 67.8131V68.1292C134.08 68.8912 133.456 69.5152 132.694 69.5152Z" fill="#52526E"/>
<path d="M132.694 74.3908H112.693C111.931 74.3908 111.308 73.7673 111.308 73.0053V72.6892C111.308 71.9266 111.931 71.3032 112.693 71.3032H132.694C133.456 71.3032 134.08 71.9266 134.08 72.6892V73.0053C134.08 73.7673 133.456 74.3908 132.694 74.3908Z" fill="#52526E"/>
<path d="M72.5777 256.214H68.2192V254.906H72.5777V256.214Z" fill="#192645"/>
<path d="M66.9124 256.214H63.7527V254.906H66.9124V256.214Z" fill="#192645"/>
</svg>
