<svg width="22" height="29" viewBox="0 0 22 29" fill="none" xmlns="http://www.w3.org/2000/svg">
<path d="M10.5455 7.30348C11.5673 7.30348 12.4375 6.94764 13.1572 6.23572C13.8771 5.52385 14.2364 4.66238 14.2364 3.65177C14.2364 2.64082 13.8771 1.77986 13.1572 1.06771C12.4375 0.355904 11.567 0 10.5455 0C9.52371 0 8.65309 0.355733 7.93369 1.06771C7.21428 1.77969 6.85449 2.64082 6.85449 3.65177C6.85449 4.66261 7.21405 5.52402 7.93369 6.23572C8.65332 6.94741 9.52371 7.30348 10.5455 7.30348Z" fill="white" fill-opacity="0.68"/>
<path d="M20.8278 15.8294L16.6097 9.56935C15.8078 8.4064 14.8412 7.82495 13.7095 7.82495H7.38201C6.25064 7.82495 5.28388 8.4064 4.482 9.56935L0.263752 15.8294C0.0879559 16.0901 0 16.3785 0 16.6935C0 17.1281 0.15375 17.4978 0.461365 17.8019C0.76898 18.1063 1.14245 18.2584 1.58182 18.2584C2.14199 18.2584 2.58148 18.0246 2.90001 17.5572L6.64038 11.9983H7.38206V14.1501L3.31202 20.8502C3.21316 21.0131 3.16382 21.1925 3.16382 21.3881C3.16382 21.6709 3.26822 21.9151 3.47686 22.1219C3.68561 22.3282 3.93268 22.4314 4.21831 22.4314H7.38183V26.8657C7.38183 27.3658 7.56288 27.7952 7.9255 28.1537C8.28811 28.5124 8.72195 28.6916 9.22735 28.6916H11.8637C12.3693 28.6916 12.8031 28.5124 13.1658 28.1537C13.528 27.7949 13.7093 27.3658 13.7093 26.8657V22.4314H16.8734C17.1588 22.4314 17.4059 22.3282 17.6148 22.1219C17.8234 21.9151 17.9277 21.6709 17.9277 21.3881C17.9277 21.1925 17.8784 21.0131 17.7798 20.8502L13.7096 14.1501V11.9983H14.4515L18.1919 17.5576C18.5105 18.0246 18.9497 18.2583 19.5102 18.2583C19.9495 18.2583 20.3228 18.1062 20.6303 17.802C20.9378 17.4978 21.0916 17.1285 21.0916 16.6937C21.0915 16.3785 21.0036 16.0905 20.8278 15.8294Z" fill="white" fill-opacity="0.68"/>
</svg>
