<svg width="278" height="13" viewBox="0 0 278 13" fill="none" xmlns="http://www.w3.org/2000/svg">
<path d="M263.112 9.064C262.867 9.064 262.589 9.05067 262.28 9.024C261.971 8.99733 261.704 8.96267 261.48 8.92V8.328C262.109 8.392 262.637 8.424 263.064 8.424C263.427 8.424 263.707 8.40533 263.904 8.368C264.101 8.32533 264.253 8.23733 264.36 8.104C264.467 7.97067 264.52 7.768 264.52 7.496C264.52 7.13867 264.44 6.89067 264.28 6.752C264.125 6.608 263.853 6.536 263.464 6.536H262.432V5.896H263.464C263.779 5.896 264.024 5.832 264.2 5.704C264.376 5.576 264.464 5.33867 264.464 4.992C264.464 4.71467 264.416 4.512 264.32 4.384C264.224 4.256 264.075 4.17333 263.872 4.136C263.675 4.09333 263.379 4.072 262.984 4.072C262.771 4.072 262.525 4.08267 262.248 4.104C261.976 4.12533 261.731 4.14933 261.512 4.176V3.576C261.725 3.53333 261.984 3.49867 262.288 3.472C262.592 3.44533 262.869 3.432 263.12 3.432C263.637 3.432 264.043 3.48533 264.336 3.592C264.635 3.69333 264.845 3.85067 264.968 4.064C265.096 4.272 265.16 4.544 265.16 4.88C265.16 5.264 265.08 5.56 264.92 5.768C264.765 5.97067 264.531 6.10667 264.216 6.176V6.208C264.547 6.26667 264.795 6.39467 264.96 6.592C265.131 6.78933 265.216 7.10133 265.216 7.528C265.216 7.86933 265.16 8.14933 265.048 8.368C264.936 8.58667 264.725 8.75733 264.416 8.88C264.112 9.00267 263.677 9.064 263.112 9.064ZM266.469 8.328C267.119 8.392 267.65 8.424 268.061 8.424C268.466 8.424 268.77 8.39467 268.973 8.336C269.181 8.272 269.322 8.16533 269.397 8.016C269.477 7.86667 269.517 7.65067 269.517 7.368C269.517 7.05867 269.474 6.83467 269.389 6.696C269.309 6.55733 269.162 6.46667 268.949 6.424C268.741 6.376 268.41 6.352 267.957 6.352C267.573 6.352 267.098 6.38667 266.533 6.456V3.496H269.805V4.144H267.165V5.784C267.549 5.736 267.957 5.712 268.389 5.712C268.895 5.712 269.279 5.77067 269.541 5.888C269.802 6 269.978 6.168 270.069 6.392C270.165 6.61067 270.213 6.90933 270.213 7.288C270.213 7.74133 270.154 8.09333 270.036 8.344C269.925 8.59467 269.719 8.77867 269.421 8.896C269.122 9.008 268.687 9.064 268.117 9.064C267.861 9.064 267.575 9.05067 267.261 9.024C266.951 8.99733 266.687 8.96267 266.469 8.92V8.328ZM272.357 6.512C272 6.512 271.744 6.472 271.589 6.392C271.435 6.30667 271.333 6.16533 271.285 5.968C271.243 5.76533 271.221 5.43467 271.221 4.976C271.221 4.52267 271.243 4.19467 271.285 3.992C271.333 3.78933 271.435 3.64533 271.589 3.56C271.744 3.47467 272 3.432 272.357 3.432C272.715 3.432 272.968 3.47467 273.117 3.56C273.272 3.64533 273.371 3.78933 273.413 3.992C273.456 4.18933 273.477 4.51733 273.477 4.976C273.477 5.44 273.456 5.77067 273.413 5.968C273.371 6.16533 273.272 6.30667 273.117 6.392C272.968 6.472 272.715 6.512 272.357 6.512ZM272.021 9L275.621 3.496H276.133L272.541 9H272.021ZM272.357 6.088C272.587 6.088 272.741 6.072 272.821 6.04C272.901 6.00267 272.955 5.91467 272.981 5.776C273.008 5.632 273.021 5.36533 273.021 4.976C273.021 4.576 273.011 4.30933 272.989 4.176C272.968 4.03733 272.915 3.94933 272.829 3.912C272.749 3.87467 272.592 3.856 272.357 3.856C272.128 3.856 271.971 3.87467 271.885 3.912C271.805 3.94933 271.752 4.04 271.725 4.184C271.699 4.32267 271.685 4.58667 271.685 4.976C271.685 5.36533 271.699 5.632 271.725 5.776C271.752 5.91467 271.805 6.00267 271.885 6.04C271.971 6.072 272.128 6.088 272.357 6.088ZM275.813 9.064C275.456 9.064 275.2 9.024 275.045 8.944C274.891 8.85867 274.789 8.71733 274.741 8.52C274.699 8.31733 274.677 7.98667 274.677 7.528C274.677 7.07467 274.699 6.74667 274.741 6.544C274.789 6.34133 274.891 6.19733 275.045 6.112C275.2 6.02667 275.456 5.984 275.813 5.984C276.171 5.984 276.427 6.02667 276.581 6.112C276.736 6.19733 276.835 6.34133 276.877 6.544C276.92 6.74133 276.941 7.06933 276.941 7.528C276.941 7.98667 276.92 8.31733 276.877 8.52C276.835 8.71733 276.736 8.85867 276.581 8.944C276.427 9.024 276.171 9.064 275.813 9.064ZM275.813 8.64C276.043 8.64 276.197 8.624 276.277 8.592C276.363 8.55467 276.416 8.46667 276.437 8.328C276.464 8.184 276.477 7.91733 276.477 7.528C276.477 7.128 276.467 6.86133 276.445 6.728C276.424 6.58933 276.371 6.50133 276.285 6.464C276.205 6.42667 276.048 6.408 275.813 6.408C275.584 6.408 275.427 6.42667 275.341 6.464C275.261 6.50133 275.208 6.592 275.181 6.736C275.16 6.87467 275.149 7.13867 275.149 7.528C275.149 7.91733 275.16 8.184 275.181 8.328C275.208 8.46667 275.261 8.55467 275.341 8.592C275.427 8.624 275.584 8.64 275.813 8.64Z" fill="black"/>
<rect y="2" width="254" height="8" rx="4" fill="#E6E6E6"/>
<rect y="2" width="86" height="8" rx="4" fill="#7D82B8"/>
</svg>
