<svg width="76" height="38" viewBox="0 0 76 38" fill="none" xmlns="http://www.w3.org/2000/svg">
<g clip-path="url(#clip0)">
<path d="M6.10352e-05 38.0001H76.0001V6.10352e-05H6.10352e-05V38.0001Z" fill="white"/>
<path d="M64.2806 13.8159C60.4446 16.5813 56.2507 18.9779 51.7315 20.9329C49.4983 21.8988 47.0912 22.5667 44.5562 22.8839C42.7536 23.1091 40.9179 23.2224 39.056 23.2224V38H76V5.35349L64.2817 13.817L64.2806 13.8158" fill="#008940"/>
<path d="M11.7189 13.8159C15.5562 16.5813 19.7494 18.9779 24.2692 20.9329C26.5029 21.8988 28.9088 22.5667 31.4449 22.8839C33.2464 23.1091 35.082 23.2224 36.9451 23.2224V38H0V5.35349L11.7183 13.817L11.7189 13.8158" fill="#008940"/>
<path d="M39.056 3.05176e-05V21.1109C40.8288 21.1109 42.578 21.0016 44.2938 20.7892C46.6257 20.4971 48.8386 19.8832 50.8924 18.9953C55.2701 17.102 59.3291 14.7823 63.0442 12.1035V12.1041L76 2.74744V3.41189e-05H39.056" fill="#133E79"/>
<path d="M36.9451 6.10352e-05V21.1109C35.1705 21.1109 33.4233 21.0016 31.7074 20.7892H31.7068C29.3742 20.4971 27.161 19.8833 25.1071 18.9954C20.7304 17.1021 16.6715 14.7823 12.9553 12.1035V12.1041L0 2.74747V6.46364e-05H36.9451" fill="#133E79"/>
</g>
<defs>
<clipPath id="clip0">
<rect width="76" height="38" fill="white"/>
</clipPath>
</defs>
</svg>
